<svg width="211" height="16" viewBox="0 0 211 16" fill="none" xmlns="http://www.w3.org/2000/svg">
<g clip-path="url(#clip0)">
<path d="M20.3043 7.24172C19.407 6.36484 18.3287 5.9266 17.0689 5.9266H4.58096C4.34902 5.9266 4.15005 5.84603 3.98362 5.68449C3.8172 5.52335 3.73419 5.32682 3.73419 5.09488V4.08209C3.73419 3.86073 3.8172 3.66908 3.98362 3.50754C4.15005 3.3464 4.34902 3.26543 4.58096 3.26543H20.6823C20.7226 3.26543 20.7551 3.25281 20.7803 3.22759C20.8056 3.20276 20.8182 3.17469 20.8182 3.14458V0.120851C20.8182 0.0805676 20.8056 0.0504565 20.7803 0.0301111C20.7551 0.0101727 20.7222 0 20.6823 0H4.58096C3.311 0 2.22985 0.438646 1.33791 1.31553C0.44597 2.19241 0 3.25037 0 4.49022V4.68675C0 5.93677 0.44597 7.00002 1.33791 7.8769C2.22985 8.75379 3.311 9.19203 4.58096 9.19203H17.0689C17.2907 9.19203 17.4848 9.27015 17.6508 9.42641C17.8172 9.58266 17.9003 9.77675 17.9003 10.0087V11.0215C17.9003 11.2534 17.8172 11.4475 17.6508 11.6038C17.4844 11.76 17.2903 11.8381 17.0689 11.8381H0.95257C0.922459 11.8381 0.894382 11.8508 0.869561 11.876C0.844332 11.9012 0.831718 11.9342 0.831718 11.9745V14.9982C0.831718 15.0283 0.844332 15.0564 0.869561 15.0812C0.894789 15.1064 0.922459 15.119 0.95257 15.119H17.0689C18.3287 15.119 19.407 14.6784 20.3043 13.7962C21.2011 12.9144 21.6499 11.8536 21.6499 10.6138V10.4168C21.6495 9.17697 21.2011 8.11861 20.3043 7.24172Z" fill="#00D1FF"/>
<path d="M47.4156 0H43.9231C43.893 0 43.8649 0.0101727 43.8401 0.0301111C43.8149 0.0504565 43.8023 0.0805676 43.8023 0.120851V3.96083C43.8023 4.29327 43.6306 4.54556 43.2883 4.71687L36.3188 7.60428L29.3493 4.71687C29.0067 4.54556 28.8354 4.29368 28.8354 3.96083V0.120851C28.8354 0.0805676 28.8252 0.0504565 28.8053 0.0301111C28.7846 0.0101727 28.7544 0 28.7142 0H25.2217C25.1916 0 25.1635 0.0101727 25.1387 0.0301111C25.1134 0.0504565 25.1008 0.0805676 25.1008 0.120851V4.52033C25.1008 5.17586 25.2823 5.77523 25.6453 6.31926C26.0082 6.86371 26.5018 7.26654 27.1268 7.52859L34.4442 10.5975V14.9823C34.4442 15.0226 34.4568 15.0556 34.4821 15.0808C34.5073 15.106 34.5399 15.1186 34.5801 15.1186H38.0726C38.1027 15.1186 38.1304 15.106 38.1556 15.0808C38.1809 15.0556 38.1935 15.023 38.1935 14.9823V10.5979L45.5109 7.54405C46.1355 7.27183 46.6299 6.86615 46.9924 6.327C47.3554 5.78784 47.5365 5.19091 47.5365 4.53538V0.120851C47.5365 0.0805676 47.5238 0.0504565 47.4986 0.0301111C47.4734 0.0101727 47.4457 0 47.4156 0Z" fill="#00D1FF"/>
<path d="M73.3568 0H69.8643C69.824 0 69.7935 0.0126141 69.7735 0.0378424C69.7532 0.0630706 69.7434 0.0907403 69.7434 0.120851V11.8528H68.2769C68.0047 11.8528 67.7728 11.7319 67.5815 11.4898L60.8086 1.58734C60.0826 0.56967 59.0796 0.0402838 57.7999 0H51.9644C51.9242 0 51.8912 0.0126141 51.866 0.0378424C51.8407 0.0630706 51.8281 0.0907403 51.8281 0.120851V14.9974C51.8281 15.0275 51.8407 15.0556 51.866 15.0804C51.8912 15.1056 51.9238 15.1182 51.9644 15.1182H55.4569C55.487 15.1182 55.5147 15.1056 55.5399 15.0804C55.5652 15.0556 55.5778 15.0275 55.5778 14.9974V3.26543H57.0443C57.3165 3.26543 57.548 3.39157 57.7397 3.64345L64.5126 13.5459C65.2386 14.564 66.2412 15.0881 67.5213 15.1182H73.3572C73.3974 15.1182 73.4276 15.1056 73.4479 15.0804C73.4678 15.0556 73.478 15.0275 73.478 14.9974V0.120851C73.478 0.0907403 73.4678 0.0630706 73.4479 0.0378424C73.4271 0.0126141 73.397 0 73.3568 0Z" fill="#00D1FF"/>
<path d="M98.5993 0H77.2065C77.1663 0 77.1357 0.0126141 77.1158 0.0378424C77.0955 0.0630706 77.0857 0.0907403 77.0857 0.120851V3.14458C77.0857 3.17469 77.0955 3.20276 77.1158 3.22759C77.1357 3.25281 77.1663 3.26543 77.2065 3.26543H86.0356V14.9974C86.0356 15.0275 86.0454 15.0556 86.0657 15.0804C86.0857 15.1056 86.1162 15.1182 86.1565 15.1182H89.649C89.6893 15.1182 89.7194 15.1056 89.7397 15.0804C89.7596 15.0556 89.7698 15.0275 89.7698 14.9974V3.26543H98.5989C98.6392 3.26543 98.6718 3.25281 98.697 3.22759C98.7222 3.20236 98.7348 3.17469 98.7348 3.14458V0.120851C98.7348 0.0907403 98.7222 0.0630706 98.697 0.0378424C98.6726 0.0126141 98.6396 0 98.5993 0Z" fill="#00D1FF"/>
<path d="M124.54 0H121.047C121.017 0 120.989 0.0126141 120.964 0.0378424C120.939 0.0630706 120.927 0.0907403 120.927 0.120851V5.92619H106.776V0.120851C106.776 0.0907403 106.763 0.0630706 106.738 0.0378424C106.713 0.013021 106.68 0 106.64 0H103.147C103.117 0 103.089 0.0126141 103.064 0.0378424C103.039 0.0630706 103.026 0.0907403 103.026 0.120851V14.9974C103.026 15.0275 103.039 15.0556 103.064 15.0804C103.089 15.1056 103.117 15.1182 103.147 15.1182H106.64C106.68 15.1182 106.713 15.1056 106.738 15.0804C106.763 15.0552 106.776 15.0275 106.776 14.9974V9.19203H120.927V14.9974C120.927 15.0275 120.939 15.0556 120.964 15.0804C120.99 15.1056 121.017 15.1182 121.047 15.1182H124.54C124.58 15.1182 124.613 15.1056 124.638 15.0804C124.663 15.0552 124.676 15.0275 124.676 14.9974V0.120851C124.676 0.0907403 124.663 0.0630706 124.638 0.0378424C124.613 0.0126141 124.58 0 124.54 0Z" fill="#00D1FF"/>
<path d="M150.389 0H133.441C132.181 0 131.102 0.438239 130.205 1.31512C129.308 2.19201 128.86 3.25037 128.86 4.49022V10.6129C128.86 11.863 129.308 12.9262 130.205 13.8031C131.102 14.68 132.181 15.1186 133.441 15.1186H150.389C150.419 15.1186 150.446 15.106 150.472 15.0808C150.496 15.0556 150.509 15.0279 150.509 14.9978V11.9741C150.509 11.9338 150.497 11.9037 150.472 11.8833C150.446 11.8634 150.419 11.8532 150.389 11.8532H133.441C133.209 11.8532 133.012 11.7726 132.851 11.6115C132.69 11.4504 132.609 11.2587 132.609 11.0369V9.19203H150.378C150.418 9.19203 150.448 9.17941 150.468 9.15419C150.488 9.12896 150.498 9.10129 150.498 9.07118V6.04745C150.498 6.00717 150.488 5.97706 150.468 5.95671C150.448 5.93677 150.418 5.9266 150.378 5.9266H132.609V4.08209C132.609 3.86033 132.69 3.66908 132.851 3.50754C133.012 3.3464 133.209 3.26543 133.441 3.26543H150.389C150.419 3.26543 150.446 3.25281 150.472 3.22759C150.496 3.20276 150.509 3.17469 150.509 3.14458V0.120851C150.509 0.0907402 150.497 0.0630706 150.472 0.0378423C150.446 0.013021 150.419 0 150.389 0Z" fill="#00D1FF"/>
<path d="M176.207 0H154.814C154.774 0 154.743 0.0126141 154.723 0.0378424C154.703 0.0630706 154.693 0.0907403 154.693 0.120851V3.14458C154.693 3.17469 154.703 3.20276 154.723 3.22759C154.743 3.25281 154.774 3.26543 154.814 3.26543H163.643V14.9974C163.643 15.0275 163.653 15.0556 163.673 15.0804C163.694 15.1056 163.724 15.1182 163.764 15.1182H167.256C167.297 15.1182 167.327 15.1056 167.347 15.0804C167.367 15.0556 167.377 15.0275 167.377 14.9974V3.26543H176.206C176.247 3.26543 176.279 3.25281 176.304 3.22759C176.33 3.20236 176.342 3.17469 176.342 3.14458V0.120851C176.342 0.0907403 176.33 0.0630706 176.304 0.0378424C176.28 0.0126141 176.247 0 176.207 0Z" fill="#00D1FF"/>
<path d="M184.338 0.0301111C184.317 0.0101727 184.287 0 184.247 0H180.755C180.714 0 180.684 0.0101727 180.664 0.0301111C180.644 0.0504565 180.634 0.0805676 180.634 0.120851V14.9974C180.634 15.0275 180.644 15.0556 180.664 15.0804C180.684 15.1056 180.714 15.1182 180.755 15.1182H184.247C184.287 15.1182 184.317 15.1056 184.338 15.0804C184.358 15.0552 184.368 15.0275 184.368 14.9974V0.120851C184.368 0.0809745 184.358 0.0504565 184.338 0.0301111Z" fill="#00D1FF"/>
<path d="M193.98 3.67421C193.829 3.5029 193.642 3.41704 193.421 3.41704H188.885C188.845 3.41704 188.812 3.40443 188.787 3.3792C188.762 3.35438 188.749 3.3263 188.749 3.29619V0.272463C188.749 0.242352 188.762 0.214682 188.787 0.189454C188.812 0.164632 188.845 0.151611 188.885 0.151611H193.678C194.887 0.151611 195.93 0.640714 196.807 1.6181L197.971 3.02397L195.704 5.76042L193.98 3.67421ZM202.355 1.60305C203.232 0.635424 204.28 0.151611 205.5 0.151611H210.277C210.318 0.151611 210.348 0.161784 210.368 0.181722C210.388 0.202068 210.398 0.232179 210.398 0.272463V3.29619C210.398 3.3263 210.388 3.35438 210.368 3.3792C210.348 3.40443 210.318 3.41704 210.277 3.41704H205.742C205.52 3.41704 205.334 3.5029 205.183 3.67421L201.841 7.69567L205.198 11.7472C205.349 11.9088 205.53 11.9894 205.742 11.9894H210.277C210.318 11.9894 210.348 12.002 210.368 12.0272C210.388 12.0524 210.398 12.0854 210.398 12.1253V15.149C210.398 15.1791 210.388 15.2072 210.368 15.232C210.348 15.2572 210.318 15.2698 210.277 15.2698H205.5C204.281 15.2698 203.238 14.7811 202.371 13.8033L199.589 10.4472L196.807 13.8033C195.93 14.7811 194.882 15.2698 193.663 15.2698H188.885C188.845 15.2698 188.814 15.2572 188.794 15.232C188.774 15.2068 188.764 15.1742 188.764 15.1335V12.1098C188.764 12.0797 188.774 12.052 188.794 12.0268C188.814 12.0016 188.845 11.9889 188.885 11.9889H193.421C193.632 11.9889 193.819 11.9035 193.98 11.7318L197.261 7.77095L202.355 1.60305Z" fill="#00D1FF"/>
</g>
<defs>
<clipPath id="clip0">
<rect width="210.399" height="15.27" fill="white"/>
</clipPath>
</defs>
</svg>
