<svg width="20" height="20" viewBox="0 -3 20 23" fill="none" xmlns="http://www.w3.org/2000/svg">
<path d="M0.213289 12.0601C-0.0797405 10.6755 -0.0678706 9.2743 0.214129 7.94038C1.32405 8.0711 2.29284 7.7035 2.60963 6.93871C2.92641 6.17392 2.50129 5.22896 1.62405 4.53655C2.36788 3.3939 3.35029 2.39471 4.53651 1.62289C5.22898 2.50059 6.17422 2.92601 6.9392 2.60914C7.70418 2.29227 8.0717 1.32308 7.94077 0.21281C9.3253 -0.0802301 10.7265 -0.0683601 12.0605 0.21364C11.9298 1.32356 12.2973 2.29235 13.0621 2.60914C13.8269 2.92593 14.7719 2.5008 15.4643 1.62356C16.6069 2.36739 17.6061 3.3498 18.3779 4.53602C17.5002 5.22849 17.0748 6.17373 17.3917 6.93871C17.7086 7.70369 18.6778 8.0713 19.788 7.94028C20.0811 9.3248 20.0692 10.726 19.7872 12.06C18.6773 11.9293 17.7085 12.2969 17.3917 13.0616C17.0749 13.8264 17.5 14.7714 18.3773 15.4638C17.6335 16.6064 16.651 17.6056 15.4648 18.3775C14.7724 17.4998 13.8271 17.0743 13.0621 17.3912C12.2971 17.7081 11.9296 18.6773 12.0606 19.7875C10.676 20.0806 9.2748 20.0687 7.94087 19.7867C8.0716 18.6768 7.70399 17.708 6.9392 17.3912C6.17441 17.0744 5.22945 17.4995 4.53703 18.3768C3.39439 17.633 2.3952 16.6506 1.62338 15.4643C2.50108 14.7719 2.92649 13.8266 2.60963 13.0616C2.29276 12.2967 1.32356 11.9291 0.213289 12.0601ZM2.00073 10.2104C3.10054 10.5148 4.00815 11.2117 4.45739 12.2963C4.90662 13.3808 4.75764 14.5154 4.19519 15.5083C4.29175 15.61 4.39096 15.7092 4.4927 15.8056C5.48558 15.2432 6.6201 15.0943 7.70456 15.5435C8.789 15.9927 9.4859 16.9002 9.7904 17.9999C9.9305 18.0037 10.0707 18.0038 10.2109 18.0001C10.5153 16.9003 11.2122 15.9927 12.2968 15.5435C13.3813 15.0942 14.5159 15.2432 15.5088 15.8057C15.6105 15.7091 15.7096 15.6099 15.806 15.5081C15.2437 14.5153 15.0947 13.3807 15.5439 12.2963C15.9931 11.2118 16.9007 10.5149 18.0004 10.2105C18.0042 10.0704 18.0043 9.9301 18.0006 9.7899C16.9008 9.4856 15.9932 8.7886 15.5439 7.70407C15.0947 6.61953 15.2437 5.48494 15.8061 4.49204C15.7096 4.39031 15.6104 4.2912 15.5086 4.19479C14.5158 4.75717 13.3812 4.9061 12.2968 4.4569C11.2123 4.0077 10.5154 3.10016 10.211 2.00044C10.0709 1.99666 9.9306 1.99659 9.7904 2.00024C9.486 3.10005 8.7891 4.00767 7.70456 4.4569C6.62002 4.90613 5.48543 4.75715 4.49252 4.1947C4.39079 4.29126 4.29169 4.39047 4.19528 4.49222C4.75766 5.48509 4.90659 6.61961 4.45739 7.70407C4.00819 8.7885 3.10065 9.4855 2.00092 9.7899C1.99715 9.93 1.99708 10.0702 2.00073 10.2104ZM10.0007 13.0002C8.3438 13.0002 7.00066 11.657 7.00066 10.0002C7.00066 8.3433 8.3438 7.00018 10.0007 7.00018C11.6575 7.00018 13.0007 8.3433 13.0007 10.0002C13.0007 11.657 11.6575 13.0002 10.0007 13.0002ZM10.0007 11.0002C10.5529 11.0002 11.0007 10.5525 11.0007 10.0002C11.0007 9.4479 10.5529 9.0002 10.0007 9.0002C9.4484 9.0002 9.0007 9.4479 9.0007 10.0002C9.0007 10.5525 9.4484 11.0002 10.0007 11.0002Z" fill="#FF0420"/>
</svg>
