<svg width="20" height="20" viewBox="0 0 20 20" fill="none" xmlns="http://www.w3.org/2000/svg">
<path d="M11.061 6.11073L12.4752 7.52494C15.2089 10.2586 15.2089 14.6908 12.4752 17.4244L12.1216 17.778C9.38799 20.5117 4.9558 20.5117 2.22213 17.778C-0.511543 15.0443 -0.511543 10.6122 2.22213 7.87849L3.63634 9.2927C1.68372 11.2453 1.68372 14.4112 3.63634 16.3638C5.58896 18.3164 8.75479 18.3164 10.7074 16.3638L11.061 16.0102C13.0136 14.0576 13.0136 10.8918 11.061 8.9392L9.64679 7.52494L11.061 6.11073ZM17.7785 12.1211L16.3643 10.7069C18.3169 8.7543 18.3169 5.58847 16.3643 3.63585C14.4117 1.68323 11.2458 1.68323 9.29319 3.63585L8.93969 3.98941C6.98702 5.94203 6.98702 9.1079 8.93969 11.0605L10.3539 12.4747L8.93969 13.8889L7.52543 12.4747C4.79176 9.741 4.79176 5.30886 7.52543 2.57519L7.87898 2.22164C10.6127 -0.512031 15.0448 -0.512031 17.7785 2.22164C20.5122 4.95531 20.5122 9.3875 17.7785 12.1211Z" fill="#FF0420"/>
</svg>
