<svg width="18" height="22" viewBox="0 0 18 22" fill="none" xmlns="http://www.w3.org/2000/svg">
<path d="M14.0839 13.812C16.6827 11.0691 16.6379 6.73845 13.9497 4.05025C11.2161 1.31658 6.78392 1.31658 4.05025 4.05025C1.36205 6.73845 1.31734 11.0691 3.91612 13.812C4.97763 12.1228 6.8577 11 9 11C11.1423 11 13.0224 12.1228 14.0839 13.812ZM5.38535 15.2848L9 18.8995L12.6147 15.2848C11.9725 13.9339 10.5953 13 9 13C7.4047 13 6.0275 13.9339 5.38535 15.2848ZM9 21.7279L2.63604 15.364C-0.87868 11.8492 -0.87868 6.15076 2.63604 2.63604C6.15076 -0.87868 11.8492 -0.87868 15.364 2.63604C18.8787 6.15076 18.8787 11.8492 15.364 15.364L9 21.7279ZM9 8C9.5523 8 10 7.55228 10 7C10 6.44772 9.5523 6 9 6C8.4477 6 8 6.44772 8 7C8 7.55228 8.4477 8 9 8ZM9 10C7.3431 10 6 8.6569 6 7C6 5.34315 7.3431 4 9 4C10.6569 4 12 5.34315 12 7C12 8.6569 10.6569 10 9 10Z" fill="#FF0420"/>
</svg>
