<svg width="19" height="21" viewBox="0 0 19 21" fill="none" xmlns="http://www.w3.org/2000/svg">
<path d="M9.9998 0L4 10H16L9.9998 0ZM9.9998 3.8873L12.4676 8H7.53232L9.9998 3.8873ZM4.75 19C3.23122 19 2 17.7688 2 16.25C2 14.7312 3.23122 13.5 4.75 13.5C6.26878 13.5 7.5 14.7312 7.5 16.25C7.5 17.7688 6.26878 19 4.75 19ZM4.75 21C7.37335 21 9.5 18.8734 9.5 16.25C9.5 13.6266 7.37335 11.5 4.75 11.5C2.12665 11.5 0 13.6266 0 16.25C0 18.8734 2.12665 21 4.75 21ZM13 14.5V18.5H17V14.5H13ZM11 20.5V12.5H19V20.5H11Z" fill="#FF0420"/>
</svg>
