<svg width="20" height="22" viewBox="0 0 20 22" fill="none" xmlns="http://www.w3.org/2000/svg">
<path d="M18.0833 14.1998L19.2854 14.9211C19.5221 15.0632 19.5989 15.3703 19.4569 15.6071C19.4146 15.6774 19.3557 15.7363 19.2854 15.7786L10.5144 21.0411C10.1977 21.2311 9.8021 21.2311 9.4854 21.0411L0.714511 15.7786C0.477721 15.6365 0.400931 15.3294 0.543011 15.0926C0.585231 15.0222 0.644131 14.9633 0.714511 14.9211L1.9166 14.1998L9.9999 19.0498L18.0833 14.1998ZM18.0833 9.4998L19.2854 10.2211C19.5221 10.3632 19.5989 10.6703 19.4569 10.9071C19.4146 10.9774 19.3557 11.0363 19.2854 11.0786L9.9999 16.6498L0.714511 11.0786C0.477721 10.9365 0.400931 10.6294 0.543011 10.3926C0.585231 10.3222 0.644131 10.2633 0.714511 10.2211L1.9166 9.4998L9.9999 14.3498L18.0833 9.4998ZM10.5144 0.308523L19.2854 5.57108C19.5221 5.71315 19.5989 6.02028 19.4569 6.25707C19.4146 6.32745 19.3557 6.38635 19.2854 6.42857L9.9999 11.9998L0.714511 6.42857C0.477721 6.2865 0.400931 5.97937 0.543011 5.74258C0.585231 5.6722 0.644131 5.6133 0.714511 5.57108L9.4854 0.308523C9.8021 0.118513 10.1977 0.118513 10.5144 0.308523ZM9.9999 2.33221L3.88723 5.99983L9.9999 9.6674L16.1126 5.99983L9.9999 2.33221Z" fill="#FF0420"/>
</svg>
