<svg width="20" height="20" viewBox="0 -4 20 22" fill="none" xmlns="http://www.w3.org/2000/svg">
<path d="M2.32894 0.271579C3.56203 -0.166801 4.99181 0.107489 5.97878 1.09446C7.0997 2.21537 7.3014 3.90741 6.58382 5.23385L17.2925 15.9437L15.8783 17.3579L5.16933 6.64875C3.84277 7.3669 2.1502 7.1654 1.02903 6.04421C0.0417821 5.05696 -0.232388 3.62665 0.206522 2.39332L2.44325 4.63C3.02903 5.21578 3.97878 5.21578 4.56457 4.63C5.15035 4.04421 5.15035 3.09446 4.56457 2.50868L2.32894 0.271579ZM12.6963 2.15512L15.8783 0.387359L17.2925 1.80157L15.5247 4.98355L13.757 5.3371L11.6356 7.4584L10.2214 6.04421L12.3427 3.92289L12.6963 2.15512ZM5.97878 10.2868L7.393 11.7011L2.08969 17.0044C1.69917 17.3949 1.066 17.3949 0.675482 17.0044C0.312852 16.6417 0.286952 16.0699 0.597772 15.6774L0.675482 15.5902L5.97878 10.2868Z" fill="#FF0420"/>
</svg>
