<svg width="398" height="361" viewBox="0 0 398 361" fill="none" xmlns="http://www.w3.org/2000/svg">
<path d="M314 200C314 136.487 262.513 85 199 85C135.487 85 84 136.487 84 200" stroke="#202327"/>
<path d="M196.525 2.40577C198.046 1.03786 200.354 1.03786 201.875 2.40577L229.672 27.406C247.662 43.5863 268.729 55.9734 291.615 63.8271L339.375 80.2166C342.977 81.4527 342.977 86.5473 339.375 87.7834L291.615 104.173C268.729 112.027 247.662 124.414 229.672 140.594L201.875 165.594C200.354 166.962 198.046 166.962 196.525 165.594L168.728 140.594C150.738 124.414 129.671 112.027 106.785 104.173L59.0251 87.7834C55.4229 86.5473 55.4229 81.4527 59.0251 80.2166L106.785 63.8271C129.671 55.9734 150.738 43.5863 168.728 27.406L196.525 2.40577Z" fill="white" stroke="#202327"/>
<path d="M197.663 5.20288C198.423 4.51893 199.577 4.51893 200.337 5.20288L223.693 26.209C243.682 44.187 267.091 57.9505 292.52 66.6768L337.487 82.1083C339.289 82.7264 339.289 85.2736 337.487 85.8917L292.52 101.323C267.091 110.049 243.682 123.813 223.693 141.791L200.337 162.797C199.577 163.481 198.423 163.481 197.663 162.797L174.307 141.791C154.318 123.813 130.909 110.049 105.481 101.323L60.5125 85.8917C58.7114 85.2736 58.7114 82.7264 60.5125 82.1083L105.48 66.6768C130.909 57.9505 154.318 44.187 174.307 26.209L197.663 5.20288Z" fill="url(#paint0_radial_670_14676)"/>
<path d="M118.403 79.008C118.403 77.7387 118.707 76.754 119.313 76.054C119.92 75.354 120.765 75.004 121.847 75.004C122.93 75.004 123.775 75.354 124.381 76.054C124.988 76.754 125.291 77.7387 125.291 79.008V81.192C125.291 82.4987 124.988 83.4927 124.381 84.174C123.775 84.8553 122.93 85.196 121.847 85.196C120.765 85.196 119.92 84.8553 119.313 84.174C118.707 83.4927 118.403 82.4987 118.403 81.192V79.008ZM121.847 84.104C122.603 84.104 123.168 83.8473 123.541 83.334C123.924 82.8113 124.115 82.0693 124.115 81.108V79.092C124.115 78.196 123.924 77.4727 123.541 76.922C123.168 76.3713 122.603 76.096 121.847 76.096C121.091 76.096 120.522 76.3713 120.139 76.922C119.766 77.4727 119.579 78.196 119.579 79.092V81.108C119.579 82.0693 119.766 82.8113 120.139 83.334C120.522 83.8473 121.091 84.104 121.847 84.104ZM128.194 87.8H127.102V78.056H128.194V79.148H128.362C128.604 78.728 128.94 78.4107 129.37 78.196C129.799 77.972 130.266 77.86 130.77 77.86C131.199 77.86 131.605 77.9393 131.988 78.098C132.37 78.2567 132.706 78.4853 132.996 78.784C133.294 79.0827 133.528 79.4513 133.696 79.89C133.873 80.3287 133.962 80.828 133.962 81.388V81.668C133.962 82.2373 133.878 82.7413 133.71 83.18C133.542 83.6187 133.308 83.9873 133.01 84.286C132.72 84.5847 132.38 84.8133 131.988 84.972C131.596 85.1213 131.18 85.196 130.742 85.196C130.518 85.196 130.289 85.168 130.056 85.112C129.822 85.0653 129.598 84.9907 129.384 84.888C129.178 84.776 128.987 84.6453 128.81 84.496C128.632 84.3373 128.483 84.1507 128.362 83.936H128.194V87.8ZM130.518 84.16C130.854 84.16 131.162 84.104 131.442 83.992C131.722 83.8707 131.964 83.7027 132.17 83.488C132.384 83.2733 132.548 83.012 132.66 82.704C132.781 82.396 132.842 82.0507 132.842 81.668V81.388C132.842 81.0147 132.781 80.6787 132.66 80.38C132.548 80.072 132.384 79.8107 132.17 79.596C131.964 79.372 131.717 79.1993 131.428 79.078C131.148 78.9567 130.844 78.896 130.518 78.896C130.191 78.896 129.888 78.9613 129.608 79.092C129.328 79.2133 129.08 79.386 128.866 79.61C128.66 79.834 128.497 80.1047 128.376 80.422C128.254 80.73 128.194 81.0707 128.194 81.444V81.612C128.194 81.9947 128.254 82.3447 128.376 82.662C128.497 82.97 128.66 83.236 128.866 83.46C129.08 83.684 129.328 83.8567 129.608 83.978C129.888 84.0993 130.191 84.16 130.518 84.16ZM135.688 78.056H137.872V75.2H138.964V78.056H141.652V79.064H138.964V83.572C138.964 83.852 139.09 83.992 139.342 83.992H141.316V85H138.95C138.633 85 138.371 84.8973 138.166 84.692C137.97 84.4867 137.872 84.2253 137.872 83.908V79.064H135.688V78.056ZM146.654 75.984C146.654 75.7133 146.748 75.4847 146.934 75.298C147.13 75.102 147.364 75.004 147.634 75.004C147.905 75.004 148.134 75.102 148.32 75.298C148.516 75.4847 148.614 75.7133 148.614 75.984C148.614 76.2547 148.516 76.488 148.32 76.684C148.134 76.8707 147.905 76.964 147.634 76.964C147.364 76.964 147.13 76.8707 146.934 76.684C146.748 76.488 146.654 76.2547 146.654 75.984ZM144.666 83.992H147.102V79.064H144.918V78.056H148.194V83.992H150.462V85H144.666V83.992ZM159.749 85H158.657V80.016C158.657 79.6893 158.582 79.4233 158.433 79.218C158.283 79.0033 158.045 78.896 157.719 78.896C157.411 78.896 157.159 79.0127 156.963 79.246C156.776 79.47 156.683 79.82 156.683 80.296V85H155.591V79.96C155.591 79.652 155.507 79.4 155.339 79.204C155.171 78.9987 154.947 78.896 154.667 78.896C154.331 78.896 154.069 79.0173 153.883 79.26C153.705 79.5027 153.617 79.82 153.617 80.212V85H152.525V78.056H153.617V78.812H153.785C153.906 78.4853 154.083 78.2473 154.317 78.098C154.55 77.9393 154.825 77.86 155.143 77.86C155.479 77.86 155.754 77.9487 155.969 78.126C156.193 78.3033 156.347 78.532 156.431 78.812H156.599C156.916 78.1773 157.42 77.86 158.111 77.86C158.633 77.86 159.035 78.028 159.315 78.364C159.604 78.6907 159.749 79.12 159.749 79.652V85ZM163.799 75.984C163.799 75.7133 163.892 75.4847 164.079 75.298C164.275 75.102 164.508 75.004 164.779 75.004C165.049 75.004 165.278 75.102 165.465 75.298C165.661 75.4847 165.759 75.7133 165.759 75.984C165.759 76.2547 165.661 76.488 165.465 76.684C165.278 76.8707 165.049 76.964 164.779 76.964C164.508 76.964 164.275 76.8707 164.079 76.684C163.892 76.488 163.799 76.2547 163.799 75.984ZM161.811 83.992H164.247V79.064H162.063V78.056H165.339V83.992H167.607V85H161.811V83.992ZM171.657 79.848C171.657 80.184 171.797 80.4407 172.077 80.618C172.366 80.7953 172.889 80.912 173.645 80.968C174.457 81.0333 175.073 81.2293 175.493 81.556C175.922 81.8733 176.137 82.34 176.137 82.956V83.04C176.137 83.376 176.067 83.6793 175.927 83.95C175.796 84.2113 175.61 84.4353 175.367 84.622C175.134 84.8087 174.844 84.9487 174.499 85.042C174.163 85.1447 173.794 85.196 173.393 85.196C172.852 85.196 172.385 85.126 171.993 84.986C171.61 84.8367 171.288 84.6453 171.027 84.412C170.775 84.1693 170.584 83.8987 170.453 83.6C170.322 83.292 170.248 82.984 170.229 82.676L171.265 82.424C171.312 82.956 171.517 83.3853 171.881 83.712C172.245 84.0293 172.73 84.188 173.337 84.188C173.85 84.188 174.261 84.09 174.569 83.894C174.886 83.6887 175.045 83.404 175.045 83.04C175.045 82.648 174.891 82.368 174.583 82.2C174.275 82.032 173.776 81.9247 173.085 81.878C172.282 81.822 171.666 81.6353 171.237 81.318C170.808 81.0007 170.593 80.5387 170.593 79.932V79.848C170.593 79.5213 170.663 79.2367 170.803 78.994C170.943 78.742 171.13 78.532 171.363 78.364C171.606 78.196 171.876 78.07 172.175 77.986C172.474 77.902 172.786 77.86 173.113 77.86C173.57 77.86 173.972 77.9253 174.317 78.056C174.662 78.1773 174.952 78.3407 175.185 78.546C175.418 78.742 175.596 78.9707 175.717 79.232C175.848 79.4933 175.932 79.7547 175.969 80.016L174.933 80.268C174.886 79.82 174.704 79.47 174.387 79.218C174.079 78.966 173.673 78.84 173.169 78.84C172.973 78.84 172.782 78.8633 172.595 78.91C172.418 78.9473 172.259 79.008 172.119 79.092C171.979 79.176 171.867 79.2833 171.783 79.414C171.699 79.5353 171.657 79.68 171.657 79.848ZM185.465 85H184.373V80.016C184.373 79.6893 184.299 79.4233 184.149 79.218C184 79.0033 183.762 78.896 183.435 78.896C183.127 78.896 182.875 79.0127 182.679 79.246C182.493 79.47 182.399 79.82 182.399 80.296V85H181.307V79.96C181.307 79.652 181.223 79.4 181.055 79.204C180.887 78.9987 180.663 78.896 180.383 78.896C180.047 78.896 179.786 79.0173 179.599 79.26C179.422 79.5027 179.333 79.82 179.333 80.212V85H178.241V78.056H179.333V78.812H179.501C179.623 78.4853 179.8 78.2473 180.033 78.098C180.267 77.9393 180.542 77.86 180.859 77.86C181.195 77.86 181.471 77.9487 181.685 78.126C181.909 78.3033 182.063 78.532 182.147 78.812H182.315C182.633 78.1773 183.137 77.86 183.827 77.86C184.35 77.86 184.751 78.028 185.031 78.364C185.321 78.6907 185.465 79.12 185.465 79.652V85ZM199.054 84.104C199.455 84.104 199.796 84.0387 200.076 83.908C200.365 83.768 200.599 83.586 200.776 83.362C200.963 83.1287 201.098 82.8673 201.182 82.578C201.275 82.2793 201.322 81.9667 201.322 81.64V81.472H202.498V81.64C202.498 82.1347 202.423 82.6013 202.274 83.04C202.125 83.4693 201.905 83.8473 201.616 84.174C201.327 84.4913 200.967 84.7433 200.538 84.93C200.109 85.1073 199.614 85.196 199.054 85.196C197.971 85.196 197.127 84.8553 196.52 84.174C195.913 83.4927 195.61 82.4987 195.61 81.192V79.008C195.61 77.7387 195.913 76.754 196.52 76.054C197.127 75.354 197.971 75.004 199.054 75.004C199.614 75.004 200.109 75.0973 200.538 75.284C200.967 75.4613 201.327 75.7133 201.616 76.04C201.905 76.3573 202.125 76.7353 202.274 77.174C202.423 77.6033 202.498 78.0653 202.498 78.56V78.728H201.322V78.56C201.313 78.2427 201.261 77.9347 201.168 77.636C201.084 77.3373 200.949 77.076 200.762 76.852C200.585 76.6187 200.356 76.4367 200.076 76.306C199.796 76.166 199.455 76.096 199.054 76.096C198.298 76.096 197.729 76.3713 197.346 76.922C196.973 77.4727 196.786 78.196 196.786 79.092V81.108C196.786 82.0693 196.973 82.8113 197.346 83.334C197.729 83.8473 198.298 84.104 199.054 84.104ZM211.056 81.612C211.056 82.1907 210.958 82.704 210.762 83.152C210.575 83.5907 210.323 83.964 210.006 84.272C209.689 84.5707 209.315 84.7993 208.886 84.958C208.466 85.1167 208.027 85.196 207.57 85.196C207.103 85.196 206.66 85.1167 206.24 84.958C205.82 84.7993 205.451 84.5707 205.134 84.272C204.817 83.964 204.56 83.5907 204.364 83.152C204.177 82.704 204.084 82.1907 204.084 81.612V81.444C204.084 80.8747 204.177 80.3707 204.364 79.932C204.56 79.484 204.817 79.106 205.134 78.798C205.461 78.49 205.834 78.2567 206.254 78.098C206.674 77.9393 207.113 77.86 207.57 77.86C208.027 77.86 208.466 77.9393 208.886 78.098C209.306 78.2567 209.675 78.49 209.992 78.798C210.319 79.106 210.575 79.484 210.762 79.932C210.958 80.3707 211.056 80.8747 211.056 81.444V81.612ZM207.57 84.16C207.906 84.16 208.214 84.104 208.494 83.992C208.783 83.8707 209.035 83.698 209.25 83.474C209.465 83.25 209.633 82.984 209.754 82.676C209.875 82.3587 209.936 82.004 209.936 81.612V81.444C209.936 81.0707 209.875 80.73 209.754 80.422C209.633 80.1047 209.465 79.834 209.25 79.61C209.035 79.386 208.783 79.2133 208.494 79.092C208.205 78.9613 207.897 78.896 207.57 78.896C207.243 78.896 206.935 78.9613 206.646 79.092C206.357 79.2133 206.105 79.386 205.89 79.61C205.675 79.834 205.507 80.1047 205.386 80.422C205.265 80.73 205.204 81.0707 205.204 81.444V81.612C205.204 82.004 205.265 82.3587 205.386 82.676C205.507 82.984 205.675 83.25 205.89 83.474C206.105 83.698 206.352 83.8707 206.632 83.992C206.921 84.104 207.234 84.16 207.57 84.16ZM213.076 83.992H215.596V76.208H213.16V75.2H216.688V83.992H219.208V85H213.076V83.992ZM221.649 83.992H224.169V76.208H221.733V75.2H225.261V83.992H227.781V85H221.649V83.992ZM231.019 81.864C231.047 82.5547 231.262 83.11 231.663 83.53C232.064 83.95 232.624 84.16 233.343 84.16C233.67 84.16 233.954 84.1227 234.197 84.048C234.44 83.9733 234.645 83.8707 234.813 83.74C234.99 83.6093 235.13 83.46 235.233 83.292C235.345 83.1147 235.434 82.928 235.499 82.732L236.535 83.012C236.339 83.656 235.975 84.1833 235.443 84.594C234.92 84.9953 234.211 85.196 233.315 85.196C232.82 85.196 232.363 85.112 231.943 84.944C231.532 84.7667 231.178 84.5193 230.879 84.202C230.58 83.8847 230.347 83.5067 230.179 83.068C230.011 82.6293 229.927 82.144 229.927 81.612V81.276C229.927 80.7907 230.011 80.338 230.179 79.918C230.356 79.498 230.599 79.1387 230.907 78.84C231.215 78.532 231.574 78.294 231.985 78.126C232.405 77.9487 232.858 77.86 233.343 77.86C233.912 77.86 234.402 77.9673 234.813 78.182C235.233 78.3873 235.574 78.644 235.835 78.952C236.106 79.26 236.302 79.596 236.423 79.96C236.554 80.324 236.619 80.66 236.619 80.968V81.864H231.019ZM233.343 78.896C233.035 78.896 232.746 78.9473 232.475 79.05C232.214 79.1433 231.98 79.2787 231.775 79.456C231.579 79.6333 231.416 79.8433 231.285 80.086C231.164 80.3193 231.084 80.576 231.047 80.856H235.527C235.508 80.5573 235.434 80.2867 235.303 80.044C235.182 79.8013 235.018 79.596 234.813 79.428C234.617 79.26 234.388 79.1293 234.127 79.036C233.875 78.9427 233.614 78.896 233.343 78.896ZM245.289 82.536C245.215 82.9187 245.084 83.2733 244.897 83.6C244.72 83.9267 244.491 84.2113 244.211 84.454C243.931 84.6873 243.605 84.8693 243.231 85C242.858 85.1307 242.443 85.196 241.985 85.196C241.5 85.196 241.038 85.1167 240.599 84.958C240.17 84.7993 239.792 84.5707 239.465 84.272C239.139 83.964 238.877 83.5907 238.681 83.152C238.495 82.7133 238.401 82.2093 238.401 81.64V81.472C238.401 80.912 238.495 80.408 238.681 79.96C238.877 79.512 239.139 79.134 239.465 78.826C239.792 78.518 240.17 78.28 240.599 78.112C241.038 77.944 241.5 77.86 241.985 77.86C242.424 77.86 242.83 77.9253 243.203 78.056C243.577 78.1867 243.903 78.3733 244.183 78.616C244.473 78.8493 244.706 79.1293 244.883 79.456C245.07 79.7827 245.196 80.1373 245.261 80.52L244.169 80.772C244.141 80.5293 244.071 80.296 243.959 80.072C243.857 79.8387 243.712 79.638 243.525 79.47C243.348 79.2927 243.129 79.1527 242.867 79.05C242.606 78.9473 242.303 78.896 241.957 78.896C241.621 78.896 241.304 78.9613 241.005 79.092C240.716 79.2133 240.459 79.3907 240.235 79.624C240.011 79.848 239.834 80.1187 239.703 80.436C239.582 80.7533 239.521 81.0987 239.521 81.472V81.64C239.521 82.032 239.582 82.3867 239.703 82.704C239.834 83.012 240.011 83.2733 240.235 83.488C240.459 83.7027 240.721 83.8707 241.019 83.992C241.318 84.104 241.64 84.16 241.985 84.16C242.331 84.16 242.629 84.1087 242.881 84.006C243.143 83.894 243.362 83.754 243.539 83.586C243.726 83.4087 243.871 83.208 243.973 82.984C244.085 82.76 244.16 82.5267 244.197 82.284L245.289 82.536ZM247.127 78.056H249.311V75.2H250.403V78.056H253.091V79.064H250.403V83.572C250.403 83.852 250.529 83.992 250.781 83.992H252.755V85H250.389C250.072 85 249.811 84.8973 249.605 84.692C249.409 84.4867 249.311 84.2253 249.311 83.908V79.064H247.127V78.056ZM258.094 75.984C258.094 75.7133 258.187 75.4847 258.374 75.298C258.57 75.102 258.803 75.004 259.074 75.004C259.344 75.004 259.573 75.102 259.76 75.298C259.956 75.4847 260.054 75.7133 260.054 75.984C260.054 76.2547 259.956 76.488 259.76 76.684C259.573 76.8707 259.344 76.964 259.074 76.964C258.803 76.964 258.57 76.8707 258.374 76.684C258.187 76.488 258.094 76.2547 258.094 75.984ZM256.106 83.992H258.542V79.064H256.358V78.056H259.634V83.992H261.902V85H256.106V83.992ZM268.64 85H266.484L264.062 78.056H265.35L267.478 84.496H267.646L269.774 78.056H271.062L268.64 85ZM273.88 81.864C273.908 82.5547 274.123 83.11 274.524 83.53C274.926 83.95 275.486 84.16 276.204 84.16C276.531 84.16 276.816 84.1227 277.058 84.048C277.301 83.9733 277.506 83.8707 277.674 83.74C277.852 83.6093 277.992 83.46 278.094 83.292C278.206 83.1147 278.295 82.928 278.36 82.732L279.396 83.012C279.2 83.656 278.836 84.1833 278.304 84.594C277.782 84.9953 277.072 85.196 276.176 85.196C275.682 85.196 275.224 85.112 274.804 84.944C274.394 84.7667 274.039 84.5193 273.74 84.202C273.442 83.8847 273.208 83.5067 273.04 83.068C272.872 82.6293 272.788 82.144 272.788 81.612V81.276C272.788 80.7907 272.872 80.338 273.04 79.918C273.218 79.498 273.46 79.1387 273.768 78.84C274.076 78.532 274.436 78.294 274.846 78.126C275.266 77.9487 275.719 77.86 276.204 77.86C276.774 77.86 277.264 77.9673 277.674 78.182C278.094 78.3873 278.435 78.644 278.696 78.952C278.967 79.26 279.163 79.596 279.284 79.96C279.415 80.324 279.48 80.66 279.48 80.968V81.864H273.88ZM276.204 78.896C275.896 78.896 275.607 78.9473 275.336 79.05C275.075 79.1433 274.842 79.2787 274.636 79.456C274.44 79.6333 274.277 79.8433 274.146 80.086C274.025 80.3193 273.946 80.576 273.908 80.856H278.388C278.37 80.5573 278.295 80.2867 278.164 80.044C278.043 79.8013 277.88 79.596 277.674 79.428C277.478 79.26 277.25 79.1293 276.988 79.036C276.736 78.9427 276.475 78.896 276.204 78.896Z" fill="#202327"/>
<rect x="1" y="200" width="190" height="160" rx="32" fill="white"/>
<rect x="5" y="204" width="182" height="152" rx="28" fill="url(#paint1_radial_670_14676)"/>
<path d="M49.6925 221.2H56.5805V222.292H53.7245V231H52.5485V222.292H49.6925V221.2ZM65.1948 227.612C65.1948 228.191 65.0968 228.704 64.9008 229.152C64.7141 229.591 64.4621 229.964 64.1448 230.272C63.8275 230.571 63.4541 230.799 63.0248 230.958C62.6048 231.117 62.1661 231.196 61.7088 231.196C61.2421 231.196 60.7988 231.117 60.3788 230.958C59.9588 230.799 59.5901 230.571 59.2728 230.272C58.9555 229.964 58.6988 229.591 58.5028 229.152C58.3161 228.704 58.2228 228.191 58.2228 227.612V227.444C58.2228 226.875 58.3161 226.371 58.5028 225.932C58.6988 225.484 58.9555 225.106 59.2728 224.798C59.5995 224.49 59.9728 224.257 60.3928 224.098C60.8128 223.939 61.2515 223.86 61.7088 223.86C62.1661 223.86 62.6048 223.939 63.0248 224.098C63.4448 224.257 63.8135 224.49 64.1308 224.798C64.4575 225.106 64.7141 225.484 64.9008 225.932C65.0968 226.371 65.1948 226.875 65.1948 227.444V227.612ZM61.7088 230.16C62.0448 230.16 62.3528 230.104 62.6328 229.992C62.9221 229.871 63.1741 229.698 63.3888 229.474C63.6035 229.25 63.7715 228.984 63.8928 228.676C64.0141 228.359 64.0748 228.004 64.0748 227.612V227.444C64.0748 227.071 64.0141 226.73 63.8928 226.422C63.7715 226.105 63.6035 225.834 63.3888 225.61C63.1741 225.386 62.9221 225.213 62.6328 225.092C62.3435 224.961 62.0355 224.896 61.7088 224.896C61.3821 224.896 61.0741 224.961 60.7848 225.092C60.4955 225.213 60.2435 225.386 60.0288 225.61C59.8141 225.834 59.6461 226.105 59.5248 226.422C59.4035 226.73 59.3428 227.071 59.3428 227.444V227.612C59.3428 228.004 59.4035 228.359 59.5248 228.676C59.6461 228.984 59.8141 229.25 60.0288 229.474C60.2435 229.698 60.4908 229.871 60.7708 229.992C61.0601 230.104 61.3728 230.16 61.7088 230.16ZM69.0071 226.94H69.2451L71.8911 224.056H73.2351V224.14L70.3511 227.318V227.57L73.5711 230.916V231H72.2271L69.2731 227.948H69.0071V231H67.9151V221.2H69.0071V226.94ZM76.5853 227.864C76.6133 228.555 76.828 229.11 77.2293 229.53C77.6307 229.95 78.1907 230.16 78.9093 230.16C79.236 230.16 79.5207 230.123 79.7633 230.048C80.006 229.973 80.2113 229.871 80.3793 229.74C80.5567 229.609 80.6967 229.46 80.7993 229.292C80.9113 229.115 81 228.928 81.0653 228.732L82.1013 229.012C81.9053 229.656 81.5413 230.183 81.0093 230.594C80.4867 230.995 79.7773 231.196 78.8813 231.196C78.3867 231.196 77.9293 231.112 77.5093 230.944C77.0987 230.767 76.744 230.519 76.4453 230.202C76.1467 229.885 75.9133 229.507 75.7453 229.068C75.5773 228.629 75.4933 228.144 75.4933 227.612V227.276C75.4933 226.791 75.5773 226.338 75.7453 225.918C75.9227 225.498 76.1653 225.139 76.4733 224.84C76.7813 224.532 77.1407 224.294 77.5513 224.126C77.9713 223.949 78.424 223.86 78.9093 223.86C79.4787 223.86 79.9687 223.967 80.3793 224.182C80.7993 224.387 81.14 224.644 81.4013 224.952C81.672 225.26 81.868 225.596 81.9893 225.96C82.12 226.324 82.1853 226.66 82.1853 226.968V227.864H76.5853ZM78.9093 224.896C78.6013 224.896 78.312 224.947 78.0413 225.05C77.78 225.143 77.5467 225.279 77.3413 225.456C77.1453 225.633 76.982 225.843 76.8513 226.086C76.73 226.319 76.6507 226.576 76.6133 226.856H81.0933C81.0747 226.557 81 226.287 80.8693 226.044C80.748 225.801 80.5847 225.596 80.3793 225.428C80.1833 225.26 79.9547 225.129 79.6933 225.036C79.4413 224.943 79.18 224.896 78.9093 224.896ZM85.4516 231H84.3596V224.056H85.4516V225.232H85.6196C86.0489 224.317 86.7956 223.86 87.8596 223.86C88.6623 223.86 89.3016 224.112 89.7776 224.616C90.2536 225.111 90.4916 225.857 90.4916 226.856V231H89.3996V227.08C89.3996 226.352 89.2363 225.806 88.9096 225.442C88.5829 225.078 88.1396 224.896 87.5796 224.896C86.9169 224.896 86.3943 225.125 86.0116 225.582C85.6383 226.03 85.4516 226.632 85.4516 227.388V231ZM101.308 221.2H102.484V225.54H106.656V221.2H107.832V231H106.656V226.632H102.484V231H101.308V221.2ZM116.628 227.612C116.628 228.191 116.53 228.704 116.334 229.152C116.148 229.591 115.896 229.964 115.578 230.272C115.261 230.571 114.888 230.799 114.458 230.958C114.038 231.117 113.6 231.196 113.142 231.196C112.676 231.196 112.232 231.117 111.812 230.958C111.392 230.799 111.024 230.571 110.706 230.272C110.389 229.964 110.132 229.591 109.936 229.152C109.75 228.704 109.656 228.191 109.656 227.612V227.444C109.656 226.875 109.75 226.371 109.936 225.932C110.132 225.484 110.389 225.106 110.706 224.798C111.033 224.49 111.406 224.257 111.826 224.098C112.246 223.939 112.685 223.86 113.142 223.86C113.6 223.86 114.038 223.939 114.458 224.098C114.878 224.257 115.247 224.49 115.564 224.798C115.891 225.106 116.148 225.484 116.334 225.932C116.53 226.371 116.628 226.875 116.628 227.444V227.612ZM113.142 230.16C113.478 230.16 113.786 230.104 114.066 229.992C114.356 229.871 114.608 229.698 114.822 229.474C115.037 229.25 115.205 228.984 115.326 228.676C115.448 228.359 115.508 228.004 115.508 227.612V227.444C115.508 227.071 115.448 226.73 115.326 226.422C115.205 226.105 115.037 225.834 114.822 225.61C114.608 225.386 114.356 225.213 114.066 225.092C113.777 224.961 113.469 224.896 113.142 224.896C112.816 224.896 112.508 224.961 112.218 225.092C111.929 225.213 111.677 225.386 111.462 225.61C111.248 225.834 111.08 226.105 110.958 226.422C110.837 226.73 110.776 227.071 110.776 227.444V227.612C110.776 228.004 110.837 228.359 110.958 228.676C111.08 228.984 111.248 229.25 111.462 229.474C111.677 229.698 111.924 229.871 112.204 229.992C112.494 230.104 112.806 230.16 113.142 230.16ZM123.605 224.056H124.697V231H123.605V229.74H123.437C123.213 230.188 122.919 230.543 122.555 230.804C122.191 231.065 121.729 231.196 121.169 231.196C120.786 231.196 120.431 231.131 120.105 231C119.787 230.879 119.512 230.692 119.279 230.44C119.055 230.188 118.877 229.875 118.747 229.502C118.625 229.129 118.565 228.695 118.565 228.2V224.056H119.657V228.06C119.657 228.788 119.806 229.32 120.105 229.656C120.403 229.992 120.861 230.16 121.477 230.16C122.139 230.16 122.657 229.936 123.031 229.488C123.413 229.031 123.605 228.424 123.605 227.668V224.056ZM128.663 225.848C128.663 226.184 128.803 226.441 129.083 226.618C129.372 226.795 129.895 226.912 130.651 226.968C131.463 227.033 132.079 227.229 132.499 227.556C132.928 227.873 133.143 228.34 133.143 228.956V229.04C133.143 229.376 133.073 229.679 132.933 229.95C132.802 230.211 132.616 230.435 132.373 230.622C132.14 230.809 131.85 230.949 131.505 231.042C131.169 231.145 130.8 231.196 130.399 231.196C129.858 231.196 129.391 231.126 128.999 230.986C128.616 230.837 128.294 230.645 128.033 230.412C127.781 230.169 127.59 229.899 127.459 229.6C127.328 229.292 127.254 228.984 127.235 228.676L128.271 228.424C128.318 228.956 128.523 229.385 128.887 229.712C129.251 230.029 129.736 230.188 130.343 230.188C130.856 230.188 131.267 230.09 131.575 229.894C131.892 229.689 132.051 229.404 132.051 229.04C132.051 228.648 131.897 228.368 131.589 228.2C131.281 228.032 130.782 227.925 130.091 227.878C129.288 227.822 128.672 227.635 128.243 227.318C127.814 227.001 127.599 226.539 127.599 225.932V225.848C127.599 225.521 127.669 225.237 127.809 224.994C127.949 224.742 128.136 224.532 128.369 224.364C128.612 224.196 128.882 224.07 129.181 223.986C129.48 223.902 129.792 223.86 130.119 223.86C130.576 223.86 130.978 223.925 131.323 224.056C131.668 224.177 131.958 224.341 132.191 224.546C132.424 224.742 132.602 224.971 132.723 225.232C132.854 225.493 132.938 225.755 132.975 226.016L131.939 226.268C131.892 225.82 131.71 225.47 131.393 225.218C131.085 224.966 130.679 224.84 130.175 224.84C129.979 224.84 129.788 224.863 129.601 224.91C129.424 224.947 129.265 225.008 129.125 225.092C128.985 225.176 128.873 225.283 128.789 225.414C128.705 225.535 128.663 225.68 128.663 225.848ZM136.591 227.864C136.619 228.555 136.834 229.11 137.235 229.53C137.637 229.95 138.197 230.16 138.915 230.16C139.242 230.16 139.527 230.123 139.769 230.048C140.012 229.973 140.217 229.871 140.385 229.74C140.563 229.609 140.703 229.46 140.805 229.292C140.917 229.115 141.006 228.928 141.071 228.732L142.107 229.012C141.911 229.656 141.547 230.183 141.015 230.594C140.493 230.995 139.783 231.196 138.887 231.196C138.393 231.196 137.935 231.112 137.515 230.944C137.105 230.767 136.75 230.519 136.451 230.202C136.153 229.885 135.919 229.507 135.751 229.068C135.583 228.629 135.499 228.144 135.499 227.612V227.276C135.499 226.791 135.583 226.338 135.751 225.918C135.929 225.498 136.171 225.139 136.479 224.84C136.787 224.532 137.147 224.294 137.557 224.126C137.977 223.949 138.43 223.86 138.915 223.86C139.485 223.86 139.975 223.967 140.385 224.182C140.805 224.387 141.146 224.644 141.407 224.952C141.678 225.26 141.874 225.596 141.995 225.96C142.126 226.324 142.191 226.66 142.191 226.968V227.864H136.591ZM138.915 224.896C138.607 224.896 138.318 224.947 138.047 225.05C137.786 225.143 137.553 225.279 137.347 225.456C137.151 225.633 136.988 225.843 136.857 226.086C136.736 226.319 136.657 226.576 136.619 226.856H141.099C141.081 226.557 141.006 226.287 140.875 226.044C140.754 225.801 140.591 225.596 140.385 225.428C140.189 225.26 139.961 225.129 139.699 225.036C139.447 224.943 139.186 224.896 138.915 224.896Z" fill="#202327"/>
<g filter="url(#filter0_d_670_14676)">
<path d="M113.515 323.126C125.263 311.378 128.276 290.087 120.249 275.54C116.021 267.877 109.561 263.597 102.659 262.988L98.9197 262.453C92.1936 261.231 84.7727 263.542 78.6603 269.654C66.9121 281.403 63.899 302.694 71.9259 317.24C76.1023 324.809 82.5904 329.088 89.3914 329.781L93.132 330.304C97.1482 331.09 101.374 330.603 105.438 328.794C108.251 327.542 110.984 325.657 113.515 323.126Z" fill="url(#paint2_linear_670_14676)"/>
<path d="M113.515 323.126C125.263 311.378 128.276 290.087 120.249 275.54C116.021 267.877 109.561 263.597 102.659 262.988L98.9197 262.453C92.1936 261.231 84.7727 263.542 78.6603 269.654C66.9121 281.403 63.899 302.694 71.9259 317.24C76.1023 324.809 82.5904 329.088 89.3914 329.781L93.132 330.304C97.1482 331.09 101.374 330.603 105.438 328.794C108.251 327.542 110.984 325.657 113.515 323.126Z" fill="url(#paint3_linear_670_14676)" fill-opacity="0.48"/>
<path d="M113.515 323.126C125.263 311.378 128.276 290.087 120.249 275.54C116.021 267.877 109.561 263.597 102.659 262.988L98.9197 262.453C92.1936 261.231 84.7727 263.542 78.6603 269.654C66.9121 281.403 63.899 302.694 71.9259 317.24C76.1023 324.809 82.5904 329.088 89.3914 329.781L93.132 330.304C97.1482 331.09 101.374 330.603 105.438 328.794C108.251 327.542 110.984 325.657 113.515 323.126Z" stroke="#202327" stroke-linejoin="round"/>
<path d="M77.9575 317.741C70.0516 303.413 73.0228 282.418 84.5939 270.847C96.165 259.276 111.954 261.511 119.86 275.838C127.766 290.166 124.795 311.161 113.224 322.732C101.653 334.303 85.8635 332.068 77.9575 317.741Z" fill="url(#paint4_radial_670_14676)"/>
<g filter="url(#filter1_di_670_14676)">
<path d="M96.5986 309.521C95.9575 310.163 95.3032 310.651 94.6355 310.986C93.9678 311.321 93.3275 311.463 92.7146 311.411C92.1017 311.359 91.5365 311.093 91.0191 310.614C90.5119 310.124 90.0779 309.394 89.717 308.426C89.4995 307.802 89.287 307.174 89.0796 306.541C88.8824 305.897 88.6817 305.247 88.4776 304.591C87.8748 302.554 87.7676 300.657 88.156 298.9C88.5445 297.143 89.4815 295.522 90.9672 294.036C91.6083 293.395 92.2611 292.918 92.9255 292.606C93.5932 292.27 94.237 292.135 94.8569 292.2C95.4869 292.254 96.0555 292.526 96.5627 293.016C97.0801 293.496 97.5142 294.225 97.8648 295.204C98.0995 295.83 98.3155 296.464 98.5127 297.108C98.72 297.741 98.9223 298.38 99.1195 299.023C99.7261 301.095 99.8282 302.997 99.4258 304.729C99.0165 306.449 98.0741 308.046 96.5986 309.521ZM95.2953 306.601C95.8448 306.052 96.2169 305.367 96.4116 304.547C96.6063 303.726 96.5469 302.789 96.2332 301.734C96.0392 301.067 95.8473 300.448 95.6576 299.875C95.478 299.292 95.2778 298.7 95.057 298.1C94.7026 297.085 94.287 296.504 93.8101 296.355C93.3332 296.206 92.8201 296.407 92.2706 296.956C91.7211 297.506 91.3489 298.191 91.1542 299.011C90.9697 299.821 91.0342 300.754 91.3479 301.809C91.528 302.45 91.7078 303.062 91.8874 303.645C92.0772 304.218 92.2843 304.822 92.5088 305.458C92.8734 306.462 93.289 307.044 93.7557 307.203C94.2224 307.362 94.7356 307.161 95.2953 306.601Z" fill="white"/>
<path d="M103.179 302.648C103.077 302.75 102.971 302.787 102.861 302.76C102.752 302.733 102.669 302.64 102.613 302.481L97.9401 288.09C97.884 287.931 97.8774 287.761 97.9203 287.582C97.9632 287.402 98.0356 287.261 98.1373 287.159L102.198 283.099C102.818 282.478 103.427 282.007 104.023 281.685C104.629 281.352 105.2 281.201 105.738 281.231C106.275 281.26 106.763 281.486 107.201 281.908C107.633 282.318 107.989 282.949 108.27 283.802C108.815 285.505 108.887 287.095 108.486 288.572C108.095 290.038 107.243 291.427 105.93 292.74L103.87 294.801L105.452 299.642C105.508 299.801 105.514 299.97 105.471 300.15C105.439 300.32 105.366 300.46 105.254 300.572L103.179 302.648ZM102.827 291.796L104.583 290.04C105 289.623 105.295 289.113 105.468 288.51C105.65 287.897 105.636 287.256 105.425 286.588C105.295 286.209 105.146 285.909 104.976 285.688C104.806 285.466 104.588 285.372 104.322 285.404C104.065 285.425 103.754 285.619 103.388 285.986L101.556 287.817L102.827 291.796Z" fill="white"/>
</g>
</g>
<path d="M54.7708 264.722L55.2607 264.822L54.7708 264.722C54.7658 264.747 54.7466 264.766 54.7221 264.771L54.8222 265.261L54.7221 264.771L48.9087 265.959C47.7757 266.191 47.7757 267.81 48.9087 268.041L54.7221 269.229C54.7466 269.234 54.7658 269.253 54.7708 269.278L55.959 275.091C56.1906 276.224 57.8094 276.224 58.041 275.091L59.2292 269.278C59.2342 269.254 59.2534 269.234 59.2779 269.229L65.0913 268.041C66.2243 267.81 66.2243 266.191 65.0913 265.959L59.2779 264.771C59.2534 264.766 59.2342 264.747 59.2292 264.722L58.041 258.909C57.8094 257.776 56.1906 257.776 55.959 258.909L54.7708 264.722Z" fill="url(#paint5_radial_670_14676)" stroke="#202327"/>
<path d="M139.857 311.572C139.667 310.639 138.333 310.639 138.143 311.572L137.367 315.367L133.572 316.143C132.639 316.333 132.639 317.666 133.572 317.857L137.367 318.633L138.143 322.427C138.333 323.361 139.667 323.361 139.857 322.427L140.633 318.633L144.428 317.857C145.361 317.666 145.361 316.333 144.428 316.143L140.633 315.367L139.857 311.572ZM137.448 318.649C137.448 318.649 137.448 318.649 137.448 318.649L137.448 318.649ZM140.552 318.649L140.552 318.649L140.552 318.649ZM140.649 315.448L140.649 315.448L140.649 315.448Z" fill="url(#paint6_radial_670_14676)" stroke="#202327"/>
<path d="M127.081 323.685C127.286 322.685 128.714 322.685 128.919 323.685L129.834 328.166L134.315 329.082C135.315 329.286 135.315 330.714 134.315 330.919L129.834 331.834L128.919 336.316C128.714 337.315 127.286 337.315 127.081 336.316L126.166 331.834L121.685 330.919M127.081 323.685L121.685 330.919M127.081 323.685L126.166 328.166L121.685 329.082C120.685 329.286 120.685 330.714 121.685 330.919M127.081 323.685L121.785 330.429L121.685 330.919" fill="url(#paint7_radial_670_14676)" stroke="#202327"/>
<rect x="1" y="200" width="190" height="160" rx="32" stroke="#202327"/>
<rect x="207" y="200" width="190" height="160" rx="32" fill="white"/>
<g clip-path="url(#clip0_670_14676)">
<rect x="211" y="204" width="182" height="152" rx="28" fill="url(#paint8_radial_670_14676)"/>
<path d="M242.048 230.104C242.449 230.104 242.79 230.039 243.07 229.908C243.359 229.768 243.593 229.586 243.77 229.362C243.957 229.129 244.092 228.867 244.176 228.578C244.269 228.279 244.316 227.967 244.316 227.64V227.472H245.492V227.64C245.492 228.135 245.417 228.601 245.268 229.04C245.119 229.469 244.899 229.847 244.61 230.174C244.321 230.491 243.961 230.743 243.532 230.93C243.103 231.107 242.608 231.196 242.048 231.196C240.965 231.196 240.121 230.855 239.514 230.174C238.907 229.493 238.604 228.499 238.604 227.192V225.008C238.604 223.739 238.907 222.754 239.514 222.054C240.121 221.354 240.965 221.004 242.048 221.004C242.608 221.004 243.103 221.097 243.532 221.284C243.961 221.461 244.321 221.713 244.61 222.04C244.899 222.357 245.119 222.735 245.268 223.174C245.417 223.603 245.492 224.065 245.492 224.56V224.728H244.316V224.56C244.307 224.243 244.255 223.935 244.162 223.636C244.078 223.337 243.943 223.076 243.756 222.852C243.579 222.619 243.35 222.437 243.07 222.306C242.79 222.166 242.449 222.096 242.048 222.096C241.292 222.096 240.723 222.371 240.34 222.922C239.967 223.473 239.78 224.196 239.78 225.092V227.108C239.78 228.069 239.967 228.811 240.34 229.334C240.723 229.847 241.292 230.104 242.048 230.104ZM249.654 221.984C249.654 221.713 249.748 221.485 249.934 221.298C250.13 221.102 250.364 221.004 250.634 221.004C250.905 221.004 251.134 221.102 251.32 221.298C251.516 221.485 251.614 221.713 251.614 221.984C251.614 222.255 251.516 222.488 251.32 222.684C251.134 222.871 250.905 222.964 250.634 222.964C250.364 222.964 250.13 222.871 249.934 222.684C249.748 222.488 249.654 222.255 249.654 221.984ZM247.666 229.992H250.102V225.064H247.918V224.056H251.194V229.992H253.462V231H247.666V229.992ZM255.833 224.056H258.017V221.2H259.109V224.056H261.797V225.064H259.109V229.572C259.109 229.852 259.235 229.992 259.487 229.992H261.461V231H259.095C258.777 231 258.516 230.897 258.311 230.692C258.115 230.487 258.017 230.225 258.017 229.908V225.064H255.833V224.056ZM266.799 221.984C266.799 221.713 266.892 221.485 267.079 221.298C267.275 221.102 267.508 221.004 267.779 221.004C268.049 221.004 268.278 221.102 268.465 221.298C268.661 221.485 268.759 221.713 268.759 221.984C268.759 222.255 268.661 222.488 268.465 222.684C268.278 222.871 268.049 222.964 267.779 222.964C267.508 222.964 267.275 222.871 267.079 222.684C266.892 222.488 266.799 222.255 266.799 221.984ZM264.811 229.992H267.247V225.064H265.063V224.056H268.339V229.992H270.607V231H264.811V229.992ZM279.319 229.992V231H273.271V229.264L278.227 225.232V225.064H273.355V224.056H279.151V225.736L274.167 229.824V229.992H279.319ZM282.585 227.864C282.613 228.555 282.828 229.11 283.229 229.53C283.631 229.95 284.191 230.16 284.909 230.16C285.236 230.16 285.521 230.123 285.763 230.048C286.006 229.973 286.211 229.871 286.379 229.74C286.557 229.609 286.697 229.46 286.799 229.292C286.911 229.115 287 228.928 287.065 228.732L288.101 229.012C287.905 229.656 287.541 230.183 287.009 230.594C286.487 230.995 285.777 231.196 284.881 231.196C284.387 231.196 283.929 231.112 283.509 230.944C283.099 230.767 282.744 230.519 282.445 230.202C282.147 229.885 281.913 229.507 281.745 229.068C281.577 228.629 281.493 228.144 281.493 227.612V227.276C281.493 226.791 281.577 226.338 281.745 225.918C281.923 225.498 282.165 225.139 282.473 224.84C282.781 224.532 283.141 224.294 283.551 224.126C283.971 223.949 284.424 223.86 284.909 223.86C285.479 223.86 285.969 223.967 286.379 224.182C286.799 224.387 287.14 224.644 287.401 224.952C287.672 225.26 287.868 225.596 287.989 225.96C288.12 226.324 288.185 226.66 288.185 226.968V227.864H282.585ZM284.909 224.896C284.601 224.896 284.312 224.947 284.041 225.05C283.78 225.143 283.547 225.279 283.341 225.456C283.145 225.633 282.982 225.843 282.851 226.086C282.73 226.319 282.651 226.576 282.613 226.856H287.093C287.075 226.557 287 226.287 286.869 226.044C286.748 225.801 286.585 225.596 286.379 225.428C286.183 225.26 285.955 225.129 285.693 225.036C285.441 224.943 285.18 224.896 284.909 224.896ZM291.452 231H290.36V224.056H291.452V225.232H291.62C292.049 224.317 292.796 223.86 293.86 223.86C294.662 223.86 295.302 224.112 295.778 224.616C296.254 225.111 296.492 225.857 296.492 226.856V231H295.4V227.08C295.4 226.352 295.236 225.806 294.91 225.442C294.583 225.078 294.14 224.896 293.58 224.896C292.917 224.896 292.394 225.125 292.012 225.582C291.638 226.03 291.452 226.632 291.452 227.388V231ZM300.374 225.848C300.374 226.184 300.514 226.441 300.794 226.618C301.083 226.795 301.606 226.912 302.362 226.968C303.174 227.033 303.79 227.229 304.21 227.556C304.639 227.873 304.854 228.34 304.854 228.956V229.04C304.854 229.376 304.784 229.679 304.644 229.95C304.513 230.211 304.327 230.435 304.084 230.622C303.851 230.809 303.561 230.949 303.216 231.042C302.88 231.145 302.511 231.196 302.11 231.196C301.569 231.196 301.102 231.126 300.71 230.986C300.327 230.837 300.005 230.645 299.744 230.412C299.492 230.169 299.301 229.899 299.17 229.6C299.039 229.292 298.965 228.984 298.946 228.676L299.982 228.424C300.029 228.956 300.234 229.385 300.598 229.712C300.962 230.029 301.447 230.188 302.054 230.188C302.567 230.188 302.978 230.09 303.286 229.894C303.603 229.689 303.762 229.404 303.762 229.04C303.762 228.648 303.608 228.368 303.3 228.2C302.992 228.032 302.493 227.925 301.802 227.878C300.999 227.822 300.383 227.635 299.954 227.318C299.525 227.001 299.31 226.539 299.31 225.932V225.848C299.31 225.521 299.38 225.237 299.52 224.994C299.66 224.742 299.847 224.532 300.08 224.364C300.323 224.196 300.593 224.07 300.892 223.986C301.191 223.902 301.503 223.86 301.83 223.86C302.287 223.86 302.689 223.925 303.034 224.056C303.379 224.177 303.669 224.341 303.902 224.546C304.135 224.742 304.313 224.971 304.434 225.232C304.565 225.493 304.649 225.755 304.686 226.016L303.65 226.268C303.603 225.82 303.421 225.47 303.104 225.218C302.796 224.966 302.39 224.84 301.886 224.84C301.69 224.84 301.499 224.863 301.312 224.91C301.135 224.947 300.976 225.008 300.836 225.092C300.696 225.176 300.584 225.283 300.5 225.414C300.416 225.535 300.374 225.68 300.374 225.848ZM309.59 221.984C309.59 221.713 309.683 221.485 309.87 221.298C310.066 221.102 310.299 221.004 310.57 221.004C310.841 221.004 311.069 221.102 311.256 221.298C311.452 221.485 311.55 221.713 311.55 221.984V223.356C311.55 223.673 311.447 223.935 311.242 224.14C311.046 224.345 310.789 224.448 310.472 224.448H309.758V223.692H310.416C310.668 223.692 310.794 223.552 310.794 223.272V222.922C310.719 222.95 310.64 222.964 310.556 222.964C310.295 222.964 310.066 222.871 309.87 222.684C309.683 222.488 309.59 222.255 309.59 221.984ZM324.453 221.2H325.629V225.54H329.801V221.2H330.977V231H329.801V226.632H325.629V231H324.453V221.2ZM339.773 227.612C339.773 228.191 339.675 228.704 339.479 229.152C339.292 229.591 339.04 229.964 338.723 230.272C338.406 230.571 338.032 230.799 337.603 230.958C337.183 231.117 336.744 231.196 336.287 231.196C335.82 231.196 335.377 231.117 334.957 230.958C334.537 230.799 334.168 230.571 333.851 230.272C333.534 229.964 333.277 229.591 333.081 229.152C332.894 228.704 332.801 228.191 332.801 227.612V227.444C332.801 226.875 332.894 226.371 333.081 225.932C333.277 225.484 333.534 225.106 333.851 224.798C334.178 224.49 334.551 224.257 334.971 224.098C335.391 223.939 335.83 223.86 336.287 223.86C336.744 223.86 337.183 223.939 337.603 224.098C338.023 224.257 338.392 224.49 338.709 224.798C339.036 225.106 339.292 225.484 339.479 225.932C339.675 226.371 339.773 226.875 339.773 227.444V227.612ZM336.287 230.16C336.623 230.16 336.931 230.104 337.211 229.992C337.5 229.871 337.752 229.698 337.967 229.474C338.182 229.25 338.35 228.984 338.471 228.676C338.592 228.359 338.653 228.004 338.653 227.612V227.444C338.653 227.071 338.592 226.73 338.471 226.422C338.35 226.105 338.182 225.834 337.967 225.61C337.752 225.386 337.5 225.213 337.211 225.092C336.922 224.961 336.614 224.896 336.287 224.896C335.96 224.896 335.652 224.961 335.363 225.092C335.074 225.213 334.822 225.386 334.607 225.61C334.392 225.834 334.224 226.105 334.103 226.422C333.982 226.73 333.921 227.071 333.921 227.444V227.612C333.921 228.004 333.982 228.359 334.103 228.676C334.224 228.984 334.392 229.25 334.607 229.474C334.822 229.698 335.069 229.871 335.349 229.992C335.638 230.104 335.951 230.16 336.287 230.16ZM346.749 224.056H347.841V231H346.749V229.74H346.581C346.357 230.188 346.063 230.543 345.699 230.804C345.335 231.065 344.873 231.196 344.313 231.196C343.931 231.196 343.576 231.131 343.249 231C342.932 230.879 342.657 230.692 342.423 230.44C342.199 230.188 342.022 229.875 341.891 229.502C341.77 229.129 341.709 228.695 341.709 228.2V224.056H342.801V228.06C342.801 228.788 342.951 229.32 343.249 229.656C343.548 229.992 344.005 230.16 344.621 230.16C345.284 230.16 345.802 229.936 346.175 229.488C346.558 229.031 346.749 228.424 346.749 227.668V224.056ZM351.807 225.848C351.807 226.184 351.947 226.441 352.227 226.618C352.517 226.795 353.039 226.912 353.795 226.968C354.607 227.033 355.223 227.229 355.643 227.556C356.073 227.873 356.287 228.34 356.287 228.956V229.04C356.287 229.376 356.217 229.679 356.077 229.95C355.947 230.211 355.76 230.435 355.517 230.622C355.284 230.809 354.995 230.949 354.649 231.042C354.313 231.145 353.945 231.196 353.543 231.196C353.002 231.196 352.535 231.126 352.143 230.986C351.761 230.837 351.439 230.645 351.177 230.412C350.925 230.169 350.734 229.899 350.603 229.6C350.473 229.292 350.398 228.984 350.379 228.676L351.415 228.424C351.462 228.956 351.667 229.385 352.031 229.712C352.395 230.029 352.881 230.188 353.487 230.188C354.001 230.188 354.411 230.09 354.719 229.894C355.037 229.689 355.195 229.404 355.195 229.04C355.195 228.648 355.041 228.368 354.733 228.2C354.425 228.032 353.926 227.925 353.235 227.878C352.433 227.822 351.817 227.635 351.387 227.318C350.958 227.001 350.743 226.539 350.743 225.932V225.848C350.743 225.521 350.813 225.237 350.953 224.994C351.093 224.742 351.28 224.532 351.513 224.364C351.756 224.196 352.027 224.07 352.325 223.986C352.624 223.902 352.937 223.86 353.263 223.86C353.721 223.86 354.122 223.925 354.467 224.056C354.813 224.177 355.102 224.341 355.335 224.546C355.569 224.742 355.746 224.971 355.867 225.232C355.998 225.493 356.082 225.755 356.119 226.016L355.083 226.268C355.037 225.82 354.855 225.47 354.537 225.218C354.229 224.966 353.823 224.84 353.319 224.84C353.123 224.84 352.932 224.863 352.745 224.91C352.568 224.947 352.409 225.008 352.269 225.092C352.129 225.176 352.017 225.283 351.933 225.414C351.849 225.535 351.807 225.68 351.807 225.848ZM359.736 227.864C359.764 228.555 359.978 229.11 360.38 229.53C360.781 229.95 361.341 230.16 362.06 230.16C362.386 230.16 362.671 230.123 362.914 230.048C363.156 229.973 363.362 229.871 363.53 229.74C363.707 229.609 363.847 229.46 363.95 229.292C364.062 229.115 364.15 228.928 364.216 228.732L365.252 229.012C365.056 229.656 364.692 230.183 364.16 230.594C363.637 230.995 362.928 231.196 362.032 231.196C361.537 231.196 361.08 231.112 360.66 230.944C360.249 230.767 359.894 230.519 359.596 230.202C359.297 229.885 359.064 229.507 358.896 229.068C358.728 228.629 358.644 228.144 358.644 227.612V227.276C358.644 226.791 358.728 226.338 358.896 225.918C359.073 225.498 359.316 225.139 359.624 224.84C359.932 224.532 360.291 224.294 360.702 224.126C361.122 223.949 361.574 223.86 362.06 223.86C362.629 223.86 363.119 223.967 363.53 224.182C363.95 224.387 364.29 224.644 364.552 224.952C364.822 225.26 365.018 225.596 365.14 225.96C365.27 226.324 365.336 226.66 365.336 226.968V227.864H359.736ZM362.06 224.896C361.752 224.896 361.462 224.947 361.192 225.05C360.93 225.143 360.697 225.279 360.492 225.456C360.296 225.633 360.132 225.843 360.002 226.086C359.88 226.319 359.801 226.576 359.764 226.856H364.244C364.225 226.557 364.15 226.287 364.02 226.044C363.898 225.801 363.735 225.596 363.53 225.428C363.334 225.26 363.105 225.129 362.844 225.036C362.592 224.943 362.33 224.896 362.06 224.896Z" fill="#202327"/>
<g filter="url(#filter2_d_670_14676)">
<path d="M318.184 337.598C319.334 339.899 321.634 341.518 331.355 345.282C341.077 349.045 346.878 349.672 349.544 350.926C352.21 352.181 358.795 352.494 364.126 363H239C244.331 352.494 250.917 352.181 253.582 350.926C256.248 349.672 262.05 349.045 271.771 345.282C281.493 341.518 283.792 339.899 284.942 337.598C286.675 334.132 286.499 324.969 286.046 318.865C285.898 318.639 285.755 318.41 285.616 318.178C288.678 309.025 286.894 298.628 284.942 290.247C282.277 278.801 283.696 269.039 289.333 267.668C295.134 266.257 299.054 269.079 301.877 270.02C302.661 270.385 304.981 270.739 307.992 269.234C308.462 270.07 311.41 271.651 315.048 270.647C318.698 269.64 318.206 273.38 321.519 277.248C321.705 280.311 323.579 279.912 323.392 288.99C323.203 298.176 319.337 301.333 321.124 307.976L321.163 308.12C321.15 308.072 321.137 308.024 321.124 307.976C320.88 311.506 319.507 315.851 317.043 319.385C316.619 325.478 316.5 334.229 318.184 337.598Z" fill="url(#paint9_radial_670_14676)"/>
<path d="M288.549 321.958L288.197 322.314H288.197L288.549 321.958ZM314.891 321.958L314.539 321.603L314.891 321.958ZM318.184 337.598L318.631 337.375L318.184 337.598ZM364.126 363V363.5H364.941L364.572 362.774L364.126 363ZM284.942 337.598L284.495 337.375L284.942 337.598ZM239 363L238.554 362.774L238.186 363.5H239V363ZM286.046 318.865L286.465 318.592L286.046 318.865ZM317.043 319.385L316.633 319.099L317.043 319.385ZM307.992 269.234L308.428 268.988L308.194 268.573L307.768 268.786L307.992 269.234ZM315.048 270.647L314.915 270.165L315.048 270.647ZM301.877 270.02L302.088 269.567L302.062 269.555L302.035 269.546L301.877 270.02ZM289.333 267.668L289.215 267.182L289.333 267.668ZM284.942 290.247L284.455 290.361L284.942 290.247ZM323.392 288.99L322.892 288.98L323.392 288.99ZM321.163 308.12L320.682 308.254L320.682 308.254L321.163 308.12ZM285.616 318.178L285.142 318.02L285.616 318.178ZM279.715 327.226C279.527 327.428 279.539 327.745 279.742 327.932C279.944 328.12 280.261 328.108 280.448 327.905L279.715 327.226ZM299.093 312.642C298.817 312.62 298.577 312.826 298.556 313.102C298.535 313.377 298.741 313.617 299.016 313.639L299.093 312.642ZM301.085 313.676L300.855 314.12H300.855L301.085 313.676ZM303.483 313.639C303.758 313.617 303.965 313.377 303.943 313.102C303.922 312.826 303.682 312.62 303.406 312.642L303.483 313.639ZM301.414 313.676L301.644 314.12H301.644L301.414 313.676ZM296.769 317.24C296.522 317.117 296.222 317.217 296.098 317.464C295.975 317.711 296.075 318.011 296.322 318.135L296.769 317.24ZM306.804 318.135C307.051 318.011 307.151 317.711 307.028 317.464C306.905 317.217 306.604 317.117 306.357 317.24L306.804 318.135ZM296.137 314.996C295.863 314.962 295.613 315.156 295.579 315.43C295.545 315.704 295.739 315.954 296.013 315.988L296.137 314.996ZM300.309 315.649L300.211 316.139L300.309 315.649ZM301.563 315.806L301.563 315.306L301.563 315.806ZM307.113 315.988C307.387 315.954 307.582 315.704 307.547 315.43C307.513 315.156 307.263 314.962 306.989 314.996L307.113 315.988ZM298.728 307.531C298.482 307.406 298.181 307.503 298.055 307.749C297.929 307.994 298.026 308.296 298.272 308.422L298.728 307.531ZM304.228 308.422C304.474 308.296 304.571 307.994 304.445 307.749C304.319 307.503 304.018 307.406 303.772 307.531L304.228 308.422ZM288.197 322.314C291.731 325.813 295.845 329.634 301.72 329.634V328.634C296.305 328.634 292.461 325.128 288.901 321.603L288.197 322.314ZM314.539 321.603C310.979 325.128 307.135 328.634 301.72 328.634V329.634C307.595 329.634 311.709 325.812 315.243 322.314L314.539 321.603ZM317.737 337.822C318.364 339.077 319.304 340.121 321.298 341.32C323.272 342.507 326.313 343.866 331.175 345.748L331.536 344.815C326.676 342.934 323.706 341.601 321.813 340.463C319.939 339.336 319.154 338.42 318.631 337.375L317.737 337.822ZM331.175 345.748C336.059 347.639 339.96 348.742 342.969 349.528C344.48 349.924 345.744 350.233 346.812 350.526C347.879 350.82 348.706 351.085 349.331 351.379L349.757 350.474C349.049 350.141 348.151 349.857 347.077 349.562C346.004 349.267 344.71 348.95 343.222 348.561C340.234 347.78 336.373 346.688 331.536 344.815L331.175 345.748ZM349.331 351.379C350.03 351.708 351.004 351.983 352.035 352.338C353.094 352.702 354.3 353.174 355.583 353.925C358.14 355.422 361.055 358.053 363.681 363.226L364.572 362.774C361.866 357.442 358.823 354.663 356.088 353.062C354.726 352.265 353.452 351.767 352.36 351.392C351.239 351.006 350.391 350.772 349.757 350.474L349.331 351.379ZM284.495 337.375C283.973 338.42 283.188 339.336 281.313 340.463C279.42 341.601 276.45 342.934 271.591 344.815L271.952 345.748C276.814 343.866 279.855 342.507 281.829 341.32C283.822 340.121 284.762 339.077 285.39 337.822L284.495 337.375ZM271.591 344.815C266.754 346.688 262.892 347.78 259.904 348.561C258.417 348.95 257.123 349.267 256.049 349.562C254.975 349.857 254.077 350.141 253.369 350.474L253.795 351.379C254.42 351.085 255.247 350.82 256.314 350.526C257.382 350.233 258.646 349.924 260.157 349.528C263.167 348.742 267.067 347.639 271.952 345.748L271.591 344.815ZM253.369 350.474C252.735 350.772 251.887 351.006 250.766 351.392C249.675 351.767 248.401 352.265 247.038 353.062C244.303 354.663 241.26 357.442 238.554 362.774L239.446 363.226C242.071 358.053 244.986 355.422 247.543 353.925C248.827 353.174 250.032 352.702 251.092 352.338C252.122 351.983 253.097 351.708 253.795 351.379L253.369 350.474ZM285.548 318.902C285.773 321.943 285.93 325.741 285.814 329.204C285.757 330.936 285.632 332.576 285.415 333.992C285.198 335.416 284.894 336.578 284.495 337.375L285.39 337.822C285.858 336.886 286.181 335.603 286.404 334.143C286.628 332.675 286.755 330.993 286.814 329.238C286.931 325.727 286.772 321.891 286.545 318.828L285.548 318.902ZM285.628 319.138C286.374 320.282 287.231 321.357 288.197 322.314L288.901 321.603C287.99 320.702 287.178 319.683 286.465 318.592L285.628 319.138ZM316.544 319.35C316.331 322.408 316.194 326.138 316.323 329.532C316.387 331.229 316.518 332.851 316.742 334.266C316.963 335.674 317.282 336.912 317.737 337.822L318.631 337.375C318.244 336.601 317.945 335.481 317.729 334.11C317.514 332.747 317.386 331.168 317.322 329.494C317.195 326.148 317.33 322.456 317.542 319.42L316.544 319.35ZM316.633 319.099C316.005 319.999 315.307 320.843 314.539 321.603L315.243 322.314C316.058 321.507 316.794 320.616 317.453 319.671L316.633 319.099ZM307.556 269.479C307.735 269.796 308.091 270.106 308.516 270.372C308.956 270.648 309.524 270.91 310.189 271.109C311.519 271.508 313.262 271.659 315.181 271.129L314.915 270.165C313.196 270.639 311.646 270.502 310.476 270.151C309.89 269.976 309.405 269.749 309.047 269.525C308.673 269.29 308.484 269.089 308.428 268.988L307.556 269.479ZM315.181 271.129C316.021 270.897 316.534 270.962 316.903 271.154C317.29 271.355 317.615 271.743 317.977 272.37C318.674 273.576 319.444 275.595 321.139 277.574L321.899 276.923C320.28 275.034 319.64 273.249 318.843 271.869C318.458 271.204 318.014 270.604 317.363 270.266C316.694 269.919 315.9 269.893 314.915 270.165L315.181 271.129ZM321.139 277.574C321.984 278.56 323.065 279.551 324.499 280.475L325.041 279.635C323.69 278.764 322.683 277.838 321.899 276.923L321.139 277.574ZM302.035 269.546C299.373 268.658 295.202 265.726 289.215 267.182L289.451 268.154C295.067 266.788 298.736 269.5 301.719 270.494L302.035 269.546ZM289.215 267.182C286.1 267.94 284.269 270.987 283.532 275.091C282.79 279.222 283.113 284.596 284.455 290.361L285.429 290.134C284.106 284.452 283.806 279.222 284.516 275.268C285.231 271.287 286.929 268.767 289.451 268.154L289.215 267.182ZM301.666 270.473C302.612 270.914 305.094 271.241 308.216 269.681L307.768 268.786C304.869 270.236 302.71 269.856 302.088 269.567L301.666 270.473ZM321.02 277.279C321.07 278.104 321.236 278.703 321.448 279.273C321.669 279.869 321.886 280.309 322.121 281.02C322.565 282.366 322.985 284.474 322.892 288.98L323.892 289.001C323.986 284.428 323.562 282.197 323.07 280.707C322.837 280 322.562 279.399 322.385 278.924C322.199 278.424 322.061 277.924 322.018 277.218L321.02 277.279ZM320.682 308.254C321.61 311.581 322.152 315.569 322.055 319.123C322.007 320.899 321.799 322.552 321.409 323.952C321.018 325.357 320.452 326.472 319.712 327.212L320.419 327.919C321.326 327.013 321.956 325.717 322.372 324.22C322.791 322.719 323.005 320.981 323.055 319.15C323.154 315.489 322.598 311.401 321.645 307.986L320.682 308.254ZM284.455 290.361C286.407 298.741 288.155 309.012 285.142 318.02L286.09 318.337C289.201 309.037 287.381 298.515 285.429 290.134L284.455 290.361ZM285.142 318.02C284.042 321.307 282.308 324.426 279.715 327.226L280.448 327.905C283.146 324.993 284.949 321.747 286.09 318.337L285.142 318.02ZM285.187 318.436C285.33 318.673 285.476 318.907 285.628 319.138L286.465 318.592C286.32 318.371 286.18 318.147 286.044 317.921L285.187 318.436ZM239 363.5H364.126V362.5H239V363.5ZM322.892 288.98C322.799 293.499 321.805 296.522 321.035 299.303C320.261 302.097 319.712 304.653 320.641 308.106L321.607 307.847C320.749 304.656 321.239 302.312 321.999 299.57C322.762 296.815 323.796 293.667 323.892 289.001L322.892 288.98ZM320.641 308.106C320.654 308.155 320.668 308.205 320.682 308.254L321.645 307.986C321.632 307.939 321.619 307.893 321.607 307.847L320.641 308.106ZM320.625 307.942C320.387 311.385 319.043 315.642 316.633 319.099L317.453 319.671C319.971 316.059 321.373 311.626 321.623 308.011L320.625 307.942ZM321.645 307.988L321.606 307.844L320.642 308.109L320.681 308.252L321.645 307.988ZM299.016 313.639C299.595 313.683 300.321 313.843 300.855 314.12L301.316 313.232C300.626 312.874 299.758 312.693 299.093 312.642L299.016 313.639ZM303.406 312.642C302.742 312.693 301.873 312.874 301.184 313.232L301.644 314.12C302.178 313.843 302.904 313.683 303.483 313.639L303.406 312.642ZM300.855 314.12C301.102 314.248 301.397 314.248 301.644 314.12L301.184 313.232C301.225 313.21 301.274 313.21 301.316 313.232L300.855 314.12ZM296.322 318.135C297.241 318.594 298.759 319.599 301.563 319.599V318.599C299.036 318.599 297.732 317.721 296.769 317.24L296.322 318.135ZM306.357 317.24C305.395 317.721 304.09 318.599 301.563 318.599V319.599C304.367 319.599 305.885 318.594 306.804 318.135L306.357 317.24ZM296.013 315.988C296.678 316.071 297.576 316.071 298.368 316.071C299.202 316.071 299.881 316.073 300.211 316.139L300.407 315.159C299.953 315.068 299.142 315.071 298.368 315.071C297.553 315.071 296.727 315.07 296.137 314.996L296.013 315.988ZM300.211 316.139C301.026 316.302 301.372 316.306 301.563 316.306L301.563 315.306C301.44 315.306 301.159 315.309 300.407 315.159L300.211 316.139ZM306.989 314.996C306.4 315.07 305.573 315.071 304.758 315.071C303.984 315.071 303.173 315.068 302.72 315.159L302.916 316.139C303.246 316.073 303.924 316.071 304.758 316.071C305.55 316.071 306.448 316.071 307.113 315.988L306.989 314.996ZM302.72 315.159C301.967 315.309 301.686 315.306 301.563 315.306L301.563 316.306C301.753 316.306 302.1 316.302 302.916 316.139L302.72 315.159ZM298.272 308.422C299.317 308.956 300.271 309.244 301.25 309.244C302.229 309.244 303.183 308.956 304.228 308.422L303.772 307.531C302.817 308.02 302.021 308.244 301.25 308.244C300.479 308.244 299.683 308.02 298.728 307.531L298.272 308.422Z" fill="#202327"/>
<path opacity="0.3" d="M325.676 343.219C320.622 340.985 319.065 339.622 318.184 337.859C316.531 334.553 316.615 325.545 317.019 319.419C316.382 320.329 315.673 321.185 314.891 321.958C312.29 324.534 309.456 327.191 305.904 328.425C303.449 330.672 309.015 342.818 318.184 343.87C323.043 344.428 325.04 343.919 325.676 343.219Z" fill="#FF2941"/>
<path opacity="0.3" d="M317.043 319.385C316.4 320.308 315.682 321.175 314.891 321.958C312.485 324.34 309.881 326.792 306.693 328.123C312.98 321.468 318.17 314.28 317.3 305.29L320.662 305.025C320.698 305.946 320.839 306.917 321.124 307.976L321.163 308.12C321.15 308.072 321.137 308.024 321.124 307.976C320.88 311.506 319.507 315.851 317.043 319.385Z" fill="#FF2941"/>
<path opacity="0.3" d="M281.895 305C284.382 309.145 285.521 315.271 285.521 317.687C286.125 316.278 287.333 312.371 287.333 308.021C287.333 303.671 285.319 293.319 284.313 288.687C283.507 284.458 282.863 274.792 286.729 269.958C290.596 265.125 297.201 267.542 300.021 269.354C298.611 267.743 293.142 259.989 283.104 263.917C269.209 269.354 274.646 292.917 281.895 305Z" fill="#FF2941"/>
<path opacity="0.3" d="M317.542 319.5C318.025 318.05 320.16 312.854 321.167 310.438C322.166 308.021 322.979 313.458 322.979 320.708C322.979 326.508 318.951 329.57 316.938 330.375C316.938 327.354 317.058 320.95 317.542 319.5Z" fill="#FF2941"/>
<path opacity="0.3" d="M332.646 304.978C333.129 303.528 335.264 298.332 336.271 295.915C337.27 293.498 339.136 299.754 337.479 306.812C335.062 317.106 331.035 317.486 329.021 318.292C331.437 309.833 332.162 306.428 332.646 304.978Z" fill="#FF2941"/>
<path opacity="0.3" d="M269.812 323.125C272.833 319.5 274.646 312.854 274.042 309.229L275.854 313.458L277.062 320.104C276.458 324.333 274.646 333.033 272.229 334C266.792 336.175 264.339 329.693 269.812 323.125Z" fill="#FF2941"/>
<path opacity="0.3" d="M281.292 326.75C282.742 325.783 285.118 321.111 286.125 318.896L286.729 324.333V330.063C286.348 330.156 285.945 330.259 285.521 330.375C278.875 332.187 279.479 327.958 281.292 326.75Z" fill="#FF2941"/>
<path d="M288.549 321.958L288.197 322.314L288.549 321.958ZM314.891 321.958L314.539 321.603L314.891 321.958ZM318.184 337.598L318.631 337.375L318.184 337.598ZM364.126 363V363.5H364.941L364.572 362.774L364.126 363ZM284.942 337.598L284.495 337.375L284.942 337.598ZM239 363L238.554 362.774L238.186 363.5H239V363ZM286.046 318.865L286.465 318.592L286.046 318.865ZM307.992 269.234L308.428 268.988L308.194 268.573L307.768 268.786L307.992 269.234ZM315.048 270.647L314.915 270.165L315.048 270.647ZM321.519 277.248L321.899 276.923L321.519 277.248ZM324.499 280.475C324.731 280.625 325.04 280.558 325.19 280.326C325.339 280.094 325.273 279.785 325.041 279.635L324.499 280.475ZM301.877 270.02L302.088 269.567L302.062 269.555L302.035 269.546L301.877 270.02ZM289.333 267.668L289.215 267.182L289.333 267.668ZM284.942 290.247L284.455 290.361L284.942 290.247ZM279.715 327.226C279.527 327.428 279.539 327.745 279.742 327.932C279.944 328.12 280.261 328.108 280.448 327.905L279.715 327.226ZM323.392 288.99L323.867 289.146L323.907 289.023L323.883 288.895L323.392 288.99ZM321.163 308.12L320.682 308.254L321.163 308.12ZM319.712 327.212C319.517 327.407 319.517 327.724 319.712 327.919C319.907 328.114 320.224 328.114 320.419 327.919L319.712 327.212ZM285.616 318.178L285.142 318.02L285.616 318.178ZM327.199 319.738C327.06 319.977 327.141 320.283 327.379 320.422C327.618 320.561 327.924 320.481 328.063 320.242L327.199 319.738ZM288.197 322.314C291.731 325.812 295.845 329.634 301.72 329.634V328.634C296.305 328.634 292.461 325.128 288.901 321.603L288.197 322.314ZM314.539 321.603C310.979 325.128 307.135 328.634 301.72 328.634V329.634C307.595 329.634 311.709 325.812 315.243 322.314L314.539 321.603ZM317.737 337.822C318.364 339.077 319.304 340.121 321.298 341.32C323.272 342.507 326.313 343.866 331.175 345.748L331.536 344.815C326.676 342.934 323.706 341.601 321.813 340.463C319.939 339.336 319.154 338.42 318.631 337.375L317.737 337.822ZM331.175 345.748C336.059 347.639 339.96 348.742 342.969 349.528C344.48 349.924 345.744 350.233 346.812 350.526C347.879 350.82 348.706 351.085 349.331 351.379L349.757 350.474C349.049 350.141 348.151 349.857 347.077 349.562C346.004 349.267 344.71 348.95 343.222 348.561C340.234 347.78 336.373 346.688 331.536 344.815L331.175 345.748ZM349.331 351.379C350.03 351.708 351.004 351.983 352.035 352.338C353.094 352.702 354.3 353.174 355.583 353.925C358.14 355.422 361.055 358.053 363.681 363.226L364.572 362.774C361.866 357.442 358.823 354.663 356.088 353.062C354.726 352.265 353.452 351.767 352.36 351.392C351.239 351.006 350.391 350.772 349.757 350.474L349.331 351.379ZM284.495 337.375C283.973 338.42 283.188 339.336 281.313 340.463C279.42 341.601 276.45 342.934 271.591 344.815L271.952 345.748C276.814 343.866 279.855 342.507 281.829 341.32C283.822 340.121 284.762 339.077 285.39 337.822L284.495 337.375ZM271.591 344.815C266.754 346.688 262.892 347.78 259.904 348.561C258.417 348.95 257.123 349.267 256.049 349.562C254.975 349.857 254.077 350.141 253.369 350.474L253.795 351.379C254.42 351.085 255.247 350.82 256.314 350.526C257.382 350.233 258.646 349.924 260.157 349.528C263.167 348.742 267.067 347.639 271.952 345.748L271.591 344.815ZM253.369 350.474C252.735 350.772 251.887 351.006 250.766 351.392C249.675 351.767 248.401 352.265 247.038 353.062C244.303 354.663 241.26 357.442 238.554 362.774L239.446 363.226C242.071 358.053 244.986 355.422 247.543 353.925C248.827 353.174 250.032 352.702 251.092 352.338C252.122 351.983 253.097 351.708 253.795 351.379L253.369 350.474ZM285.548 318.902C285.773 321.943 285.93 325.741 285.814 329.204C285.757 330.936 285.632 332.576 285.415 333.992C285.198 335.416 284.894 336.578 284.495 337.375L285.39 337.822C285.858 336.886 286.181 335.603 286.404 334.143C286.628 332.675 286.755 330.993 286.814 329.238C286.931 325.727 286.772 321.891 286.545 318.828L285.548 318.902ZM285.628 319.138C286.374 320.282 287.231 321.357 288.197 322.314L288.901 321.603C287.99 320.702 287.178 319.683 286.465 318.592L285.628 319.138ZM316.544 319.35C316.331 322.408 316.194 326.138 316.323 329.532C316.387 331.229 316.518 332.851 316.742 334.266C316.963 335.674 317.282 336.912 317.737 337.822L318.631 337.375C318.244 336.601 317.945 335.481 317.729 334.11C317.514 332.747 317.386 331.168 317.322 329.494C317.195 326.148 317.33 322.456 317.542 319.42L316.544 319.35ZM316.633 319.099C316.005 319.999 315.307 320.843 314.539 321.603L315.243 322.314C316.058 321.507 316.794 320.616 317.453 319.671L316.633 319.099ZM307.556 269.479C307.735 269.796 308.091 270.106 308.516 270.372C308.956 270.648 309.524 270.91 310.189 271.109C311.519 271.508 313.262 271.659 315.181 271.129L314.915 270.165C313.196 270.639 311.646 270.502 310.476 270.151C309.89 269.976 309.405 269.749 309.047 269.525C308.673 269.29 308.484 269.089 308.428 268.988L307.556 269.479ZM315.181 271.129C316.021 270.897 316.534 270.962 316.903 271.154C317.29 271.355 317.615 271.743 317.977 272.37C318.674 273.576 319.444 275.595 321.139 277.574L321.899 276.923C320.28 275.034 319.64 273.249 318.843 271.869C318.458 271.204 318.014 270.604 317.363 270.266C316.694 269.919 315.9 269.893 314.915 270.165L315.181 271.129ZM321.139 277.574C321.984 278.56 323.065 279.551 324.499 280.475L325.041 279.635C323.69 278.764 322.683 277.838 321.899 276.923L321.139 277.574ZM302.035 269.546C299.373 268.658 295.202 265.726 289.215 267.182L289.451 268.154C295.067 266.788 298.736 269.5 301.719 270.494L302.035 269.546ZM289.215 267.182C286.1 267.94 284.269 270.987 283.532 275.091C282.79 279.222 283.113 284.596 284.455 290.361L285.429 290.134C284.106 284.452 283.806 279.222 284.516 275.268C285.231 271.287 286.929 268.767 289.451 268.154L289.215 267.182ZM301.666 270.473C302.612 270.914 305.094 271.241 308.216 269.681L307.768 268.786C304.869 270.236 302.71 269.856 302.088 269.567L301.666 270.473ZM321.02 277.279C321.115 278.844 321.589 281.808 322.033 284.354C322.256 285.633 322.473 286.815 322.634 287.678C322.715 288.11 322.781 288.461 322.828 288.705C322.851 288.827 322.869 288.922 322.882 288.987C322.888 289.019 322.893 289.044 322.896 289.06C322.898 289.069 322.899 289.075 322.9 289.079C322.9 289.081 322.9 289.083 322.901 289.084C322.901 289.085 322.901 289.085 322.901 289.085C322.901 289.085 322.901 289.086 322.901 289.086C322.901 289.086 322.901 289.086 323.392 288.99C323.883 288.895 323.883 288.895 323.883 288.895C323.883 288.895 323.883 288.895 323.883 288.895C323.883 288.894 323.882 288.894 323.882 288.893C323.882 288.892 323.882 288.891 323.881 288.889C323.881 288.885 323.879 288.879 323.878 288.87C323.875 288.854 323.87 288.83 323.864 288.797C323.851 288.733 323.833 288.639 323.81 288.518C323.764 288.275 323.697 287.925 323.617 287.495C323.456 286.634 323.24 285.456 323.018 284.182C322.572 281.622 322.109 278.716 322.018 277.218L321.02 277.279ZM320.682 308.254C321.61 311.581 322.152 315.569 322.055 319.123C322.007 320.899 321.799 322.552 321.409 323.952C321.018 325.357 320.452 326.472 319.712 327.212L320.419 327.919C321.326 327.013 321.956 325.717 322.372 324.22C322.791 322.719 323.005 320.981 323.055 319.15C323.154 315.489 322.598 311.401 321.645 307.986L320.682 308.254ZM284.455 290.361C286.407 298.741 288.155 309.012 285.142 318.02L286.09 318.337C289.201 309.037 287.381 298.515 285.429 290.134L284.455 290.361ZM285.142 318.02C284.042 321.307 282.308 324.426 279.715 327.226L280.448 327.905C283.146 324.993 284.949 321.747 286.09 318.337L285.142 318.02ZM285.187 318.436C285.33 318.673 285.476 318.907 285.628 319.138L286.465 318.592C286.32 318.371 286.18 318.147 286.044 317.921L285.187 318.436ZM239 363.5H364.126V362.5H239V363.5ZM323.392 288.99C322.917 288.834 322.917 288.834 322.917 288.835C322.917 288.835 322.917 288.835 322.917 288.835C322.916 288.836 322.916 288.836 322.916 288.837C322.915 288.839 322.915 288.841 322.914 288.844C322.911 288.851 322.908 288.86 322.905 288.872C322.897 288.896 322.885 288.932 322.87 288.979C322.84 289.073 322.797 289.21 322.743 289.387C322.635 289.741 322.482 290.253 322.305 290.888C321.95 292.157 321.496 293.92 321.098 295.893C320.307 299.81 319.714 304.66 320.641 308.106L321.607 307.847C320.747 304.649 321.288 300.006 322.078 296.091C322.47 294.148 322.918 292.41 323.268 291.157C323.443 290.531 323.593 290.027 323.699 289.68C323.752 289.507 323.794 289.373 323.823 289.282C323.838 289.237 323.849 289.203 323.856 289.18C323.86 289.168 323.862 289.16 323.864 289.154C323.865 289.151 323.866 289.149 323.866 289.148C323.867 289.147 323.867 289.147 323.867 289.147C323.867 289.147 323.867 289.146 323.867 289.146C323.867 289.146 323.867 289.146 323.392 288.99ZM320.641 308.106C320.654 308.155 320.668 308.205 320.682 308.254L321.645 307.986C321.632 307.939 321.619 307.893 321.607 307.847L320.641 308.106ZM320.625 307.942C320.387 311.385 319.043 315.642 316.633 319.099L317.453 319.671C319.971 316.059 321.373 311.626 321.623 308.011L320.625 307.942ZM321.645 307.988L321.606 307.844L320.642 308.109L320.681 308.252L321.645 307.988ZM329.648 288.99C329.167 289.128 329.167 289.128 329.167 289.128C329.167 289.128 329.167 289.128 329.167 289.128C329.168 289.128 329.168 289.129 329.168 289.13C329.169 289.132 329.169 289.135 329.171 289.139C329.173 289.147 329.176 289.16 329.181 289.177C329.191 289.211 329.205 289.262 329.223 289.33C329.259 289.465 329.311 289.667 329.375 289.928C329.504 290.452 329.68 291.215 329.869 292.171C330.247 294.084 330.676 296.764 330.878 299.831C331.284 305.98 330.774 313.61 327.199 319.738L328.063 320.242C331.787 313.858 332.286 305.988 331.876 299.765C331.67 296.646 331.234 293.922 330.85 291.978C330.658 291.005 330.478 290.226 330.346 289.69C330.281 289.422 330.227 289.214 330.189 289.072C330.17 289.002 330.155 288.947 330.145 288.911C330.14 288.892 330.136 288.878 330.133 288.868C330.132 288.864 330.131 288.86 330.13 288.857C330.13 288.856 330.13 288.855 330.129 288.854C330.129 288.854 330.129 288.854 330.129 288.853C330.129 288.853 330.129 288.853 329.648 288.99Z" fill="#202327"/>
<path d="M264.084 320.035C263.997 320.297 264.138 320.581 264.4 320.668C264.662 320.755 264.946 320.614 265.033 320.352L264.084 320.035ZM265.033 320.352C265.57 318.739 266.205 317.402 266.84 316.149C267.47 314.905 268.117 313.715 268.646 312.448C269.721 309.872 270.319 306.956 269.6 302.243L268.611 302.394C269.304 306.932 268.725 309.661 267.723 312.063C267.213 313.285 266.596 314.418 265.948 315.697C265.304 316.968 264.644 318.355 264.084 320.035L265.033 320.352Z" fill="#202327"/>
<path d="M317.714 284.603C314.734 283.975 309.926 285.439 307.208 286.484V285.543C310.461 284.042 317.634 282.253 321.321 286.509C321.551 286.742 321.711 286.952 321.79 287.111C321.641 286.898 321.485 286.698 321.321 286.509C320.646 285.826 319.364 284.95 317.714 284.603Z" fill="#202327"/>
<path d="M307.208 286.484H306.708L307.387 286.951L307.208 286.484ZM317.714 284.603L317.611 285.092L317.714 284.603ZM321.79 287.111L321.381 287.398C321.531 287.613 321.821 287.675 322.046 287.541C322.271 287.407 322.355 287.122 322.238 286.888L321.79 287.111ZM307.208 285.543L306.998 285.089L306.708 285.543H307.208ZM307.387 286.951C308.73 286.434 310.587 285.816 312.47 285.405C314.367 284.99 316.228 284.801 317.611 285.092L317.817 284.113C316.22 283.777 314.187 284.006 312.256 284.428C310.31 284.853 308.404 285.489 307.029 286.018L307.387 286.951ZM317.611 285.092C319.153 285.417 320.35 286.238 320.965 286.86L321.677 286.157C320.942 285.414 319.575 284.483 317.817 284.113L317.611 285.092ZM320.965 286.86C321.178 287.075 321.297 287.243 321.343 287.335L322.238 286.888C322.124 286.662 321.924 286.408 321.677 286.157L320.965 286.86ZM307.708 286.484V285.543H306.708V286.484H307.708ZM307.418 285.997C308.998 285.268 311.54 284.467 314.121 284.367C316.705 284.267 319.239 284.87 320.943 286.836L321.699 286.182C319.716 283.892 316.82 283.262 314.082 283.368C311.342 283.474 308.671 284.318 306.998 285.089L307.418 285.997ZM320.943 286.836C321.095 287.012 321.241 287.199 321.381 287.398L322.2 286.825C322.041 286.598 321.874 286.383 321.699 286.182L320.943 286.836Z" fill="#202327"/>
<path d="M286.04 284.603C289.019 283.975 293.828 285.439 296.546 286.484V285.543C293.293 284.042 286.12 282.253 282.433 286.509C282.203 286.742 282.043 286.952 281.963 287.111C282.112 286.898 282.269 286.698 282.433 286.509C283.108 285.826 284.39 284.95 286.04 284.603Z" fill="#202327"/>
<path d="M296.546 286.484H297.046L296.366 286.951L296.546 286.484ZM286.04 284.603L286.143 285.092L286.04 284.603ZM281.963 287.111L282.373 287.398C282.223 287.613 281.932 287.675 281.707 287.541C281.482 287.407 281.399 287.122 281.516 286.888L281.963 287.111ZM296.546 285.543L296.755 285.089L297.046 285.543H296.546ZM296.366 286.951C295.023 286.434 293.167 285.816 291.284 285.405C289.387 284.99 287.525 284.801 286.143 285.092L285.937 284.113C287.534 283.777 289.566 284.006 291.497 284.428C293.443 284.853 295.35 285.489 296.725 286.018L296.366 286.951ZM286.143 285.092C284.6 285.417 283.403 286.238 282.788 286.86L282.077 286.157C282.812 285.414 284.179 284.483 285.937 284.113L286.143 285.092ZM282.788 286.86C282.576 287.075 282.457 287.243 282.41 287.335L281.516 286.888C281.629 286.662 281.829 286.408 282.077 286.157L282.788 286.86ZM296.046 286.484V285.543H297.046V286.484H296.046ZM296.336 285.997C294.755 285.268 292.214 284.467 289.632 284.367C287.049 284.267 284.514 284.87 282.81 286.836L282.055 286.182C284.038 283.892 286.933 283.262 289.671 283.368C292.412 283.474 295.083 284.318 296.755 285.089L296.336 285.997ZM282.81 286.836C282.658 287.012 282.512 287.199 282.373 287.398L281.554 286.825C281.713 286.598 281.88 286.383 282.055 286.182L282.81 286.836Z" fill="#202327"/>
<path d="M308.933 247.911L309.035 247.422L308.933 247.911ZM275.691 261.867L275.241 261.648L275.691 261.867ZM271.824 333.092C271.672 333.323 271.736 333.633 271.966 333.785C272.197 333.937 272.507 333.873 272.659 333.643L271.824 333.092ZM333.396 314.322C333.259 314.562 333.342 314.867 333.582 315.004C333.822 315.141 334.127 315.058 334.264 314.818L333.396 314.322ZM322.682 262.725C322.638 262.998 322.823 263.254 323.096 263.298C323.368 263.342 323.625 263.157 323.669 262.884L322.682 262.725ZM309.035 247.422C292.656 243.994 280.684 250.44 275.241 261.648L276.141 262.085C281.36 251.336 292.846 245.055 308.83 248.401L309.035 247.422ZM275.241 261.648C270.994 270.394 271.022 273.522 264.333 281.455L265.097 282.1C271.893 274.04 271.977 270.66 276.141 262.085L275.241 261.648ZM264.333 281.455C260.79 285.657 261.316 290.393 263.14 294.544C264.958 298.68 268.105 302.34 269.98 304.528L270.739 303.877C268.852 301.675 265.805 298.121 264.056 294.141C262.313 290.176 261.898 285.895 265.097 282.1L264.333 281.455ZM269.98 304.528C271.863 306.724 274.769 310.135 275.991 314.853C277.206 319.542 276.773 325.591 271.824 333.092L272.659 333.643C277.745 325.934 278.253 319.596 276.959 314.602C275.673 309.638 272.62 306.071 270.739 303.877L269.98 304.528ZM329.522 274.942C329.522 277.636 330.448 280.343 331.625 283.124C332.815 285.938 334.247 288.803 335.37 291.953C337.592 298.184 338.525 305.345 333.396 314.322L334.264 314.818C339.575 305.525 338.604 298.045 336.312 291.617C335.178 288.437 333.701 285.467 332.546 282.735C331.377 279.971 330.522 277.422 330.522 274.942H329.522ZM322.492 258.758C326.193 260.773 329.522 266.392 329.522 274.942H330.522C330.522 266.181 327.109 260.133 322.97 257.88L322.492 258.758ZM323.669 262.884C324.523 257.588 320.367 249.794 309.035 247.422L308.83 248.401C319.783 250.693 323.429 258.09 322.682 262.725L323.669 262.884Z" fill="#202327"/>
<rect x="265.47" y="288.893" width="72.1917" height="16" rx="1" fill="url(#paint10_radial_670_14676)"/>
<g filter="url(#filter3_d_670_14676)">
<path d="M289.763 292.26C289.813 291.986 290.206 291.986 290.255 292.26L290.835 295.484C290.851 295.568 290.908 295.639 290.988 295.671L293.443 296.661C293.652 296.745 293.652 297.04 293.443 297.124L290.988 298.114C290.908 298.146 290.851 298.217 290.835 298.301L290.255 301.525C290.206 301.799 289.813 301.799 289.763 301.525L289.183 298.301C289.168 298.217 289.11 298.146 289.031 298.114L286.576 297.124C286.367 297.04 286.367 296.745 286.576 296.661L289.031 295.671C289.11 295.639 289.168 295.568 289.183 295.484L289.763 292.26Z" fill="white"/>
</g>
<g filter="url(#filter4_d_670_14676)">
<path d="M313.716 292.26C313.765 291.986 314.159 291.986 314.208 292.26L314.788 295.484C314.803 295.568 314.861 295.639 314.941 295.671L317.396 296.661C317.605 296.745 317.605 297.04 317.396 297.124L314.941 298.114C314.861 298.146 314.803 298.217 314.788 298.301L314.208 301.525C314.159 301.799 313.765 301.799 313.716 301.525L313.136 298.301C313.121 298.217 313.063 298.146 312.983 298.114L310.528 297.124C310.319 297.04 310.319 296.745 310.528 296.661L312.983 295.671C313.063 295.639 313.121 295.568 313.136 295.484L313.716 292.26Z" fill="white"/>
</g>
<path d="M272.241 333.367C282.277 318.158 274.123 308.593 270.36 304.203C266.941 300.214 259.509 291.563 263.235 284.017" stroke="#202327" stroke-width="0.75"/>
</g>
</g>
<rect x="207" y="200" width="190" height="160" rx="32" stroke="#202327"/>
<defs>
<filter id="filter0_d_670_14676" x="46" y="237.745" width="100.175" height="125.29" filterUnits="userSpaceOnUse" color-interpolation-filters="sRGB">
<feFlood flood-opacity="0" result="BackgroundImageFix"/>
<feColorMatrix in="SourceAlpha" type="matrix" values="0 0 0 0 0 0 0 0 0 0 0 0 0 0 0 0 0 0 127 0" result="hardAlpha"/>
<feOffset dy="4"/>
<feGaussianBlur stdDeviation="6"/>
<feComposite in2="hardAlpha" operator="out"/>
<feColorMatrix type="matrix" values="0 0 0 0 1 0 0 0 0 0.0156863 0 0 0 0 0.12549 0 0 0 0.16 0"/>
<feBlend mode="normal" in2="BackgroundImageFix" result="effect1_dropShadow_670_14676"/>
<feBlend mode="normal" in="SourceGraphic" in2="effect1_dropShadow_670_14676" result="shape"/>
</filter>
<filter id="filter1_di_670_14676" x="83.9277" y="276.227" width="28.8133" height="38.1948" filterUnits="userSpaceOnUse" color-interpolation-filters="sRGB">
<feFlood flood-opacity="0" result="BackgroundImageFix"/>
<feColorMatrix in="SourceAlpha" type="matrix" values="0 0 0 0 0 0 0 0 0 0 0 0 0 0 0 0 0 0 127 0" result="hardAlpha"/>
<feOffset dy="-1"/>
<feGaussianBlur stdDeviation="2"/>
<feComposite in2="hardAlpha" operator="out"/>
<feColorMatrix type="matrix" values="0 0 0 0 0 0 0 0 0 0 0 0 0 0 0 0 0 0 0.08 0"/>
<feBlend mode="normal" in2="BackgroundImageFix" result="effect1_dropShadow_670_14676"/>
<feBlend mode="normal" in="SourceGraphic" in2="effect1_dropShadow_670_14676" result="shape"/>
<feColorMatrix in="SourceAlpha" type="matrix" values="0 0 0 0 0 0 0 0 0 0 0 0 0 0 0 0 0 0 127 0" result="hardAlpha"/>
<feOffset dy="2"/>
<feGaussianBlur stdDeviation="2"/>
<feComposite in2="hardAlpha" operator="arithmetic" k2="-1" k3="1"/>
<feColorMatrix type="matrix" values="0 0 0 0 0 0 0 0 0 0 0 0 0 0 0 0 0 0 0.16 0"/>
<feBlend mode="normal" in2="shape" result="effect2_innerShadow_670_14676"/>
</filter>
<filter id="filter2_d_670_14676" x="211.186" y="236.5" width="174.755" height="165" filterUnits="userSpaceOnUse" color-interpolation-filters="sRGB">
<feFlood flood-opacity="0" result="BackgroundImageFix"/>
<feColorMatrix in="SourceAlpha" type="matrix" values="0 0 0 0 0 0 0 0 0 0 0 0 0 0 0 0 0 0 127 0" result="hardAlpha"/>
<feOffset dx="-3" dy="14"/>
<feGaussianBlur stdDeviation="12"/>
<feComposite in2="hardAlpha" operator="out"/>
<feColorMatrix type="matrix" values="0 0 0 0 1 0 0 0 0 0.0156863 0 0 0 0 0.12549 0 0 0 0.24 0"/>
<feBlend mode="normal" in2="BackgroundImageFix" result="effect1_dropShadow_670_14676"/>
<feBlend mode="normal" in="SourceGraphic" in2="effect1_dropShadow_670_14676" result="shape"/>
</filter>
<filter id="filter3_d_670_14676" x="280.419" y="286.054" width="19.1809" height="21.6763" filterUnits="userSpaceOnUse" color-interpolation-filters="sRGB">
<feFlood flood-opacity="0" result="BackgroundImageFix"/>
<feColorMatrix in="SourceAlpha" type="matrix" values="0 0 0 0 0 0 0 0 0 0 0 0 0 0 0 0 0 0 127 0" result="hardAlpha"/>
<feOffset/>
<feGaussianBlur stdDeviation="3"/>
<feComposite in2="hardAlpha" operator="out"/>
<feColorMatrix type="matrix" values="0 0 0 0 1 0 0 0 0 1 0 0 0 0 1 0 0 0 1 0"/>
<feBlend mode="normal" in2="BackgroundImageFix" result="effect1_dropShadow_670_14676"/>
<feBlend mode="normal" in="SourceGraphic" in2="effect1_dropShadow_670_14676" result="shape"/>
</filter>
<filter id="filter4_d_670_14676" x="304.372" y="286.054" width="19.1809" height="21.6763" filterUnits="userSpaceOnUse" color-interpolation-filters="sRGB">
<feFlood flood-opacity="0" result="BackgroundImageFix"/>
<feColorMatrix in="SourceAlpha" type="matrix" values="0 0 0 0 0 0 0 0 0 0 0 0 0 0 0 0 0 0 127 0" result="hardAlpha"/>
<feOffset/>
<feGaussianBlur stdDeviation="3"/>
<feComposite in2="hardAlpha" operator="out"/>
<feColorMatrix type="matrix" values="0 0 0 0 1 0 0 0 0 1 0 0 0 0 1 0 0 0 1 0"/>
<feBlend mode="normal" in2="BackgroundImageFix" result="effect1_dropShadow_670_14676"/>
<feBlend mode="normal" in="SourceGraphic" in2="effect1_dropShadow_670_14676" result="shape"/>
</filter>
<radialGradient id="paint0_radial_670_14676" cx="0" cy="0" r="1" gradientUnits="userSpaceOnUse" gradientTransform="translate(343 164) rotate(-150.945) scale(329.46 527.982)">
<stop stop-color="#FFDBDF"/>
<stop offset="1" stop-color="white"/>
</radialGradient>
<radialGradient id="paint1_radial_670_14676" cx="0" cy="0" r="1" gradientUnits="userSpaceOnUse" gradientTransform="translate(187 356) rotate(-140.133) scale(237.124 442.183)">
<stop stop-color="#FFED83"/>
<stop offset="1" stop-color="#FDF6F2"/>
</radialGradient>
<linearGradient id="paint2_linear_670_14676" x1="78.9513" y1="270.049" x2="119.208" y2="310.306" gradientUnits="userSpaceOnUse">
<stop stop-color="white"/>
<stop offset="1" stop-color="#CBD5E0"/>
</linearGradient>
<linearGradient id="paint3_linear_670_14676" x1="75.9278" y1="288.631" x2="74.0267" y2="298.61" gradientUnits="userSpaceOnUse">
<stop stop-color="white"/>
<stop offset="1" stop-color="#FF2941" stop-opacity="0.4"/>
</linearGradient>
<radialGradient id="paint4_radial_670_14676" cx="0" cy="0" r="1" gradientUnits="userSpaceOnUse" gradientTransform="translate(54.622 216.531) rotate(61.11) scale(123.519 118.668)">
<stop stop-color="#FFA3AD"/>
<stop offset="1" stop-color="#FF0420"/>
</radialGradient>
<radialGradient id="paint5_radial_670_14676" cx="0" cy="0" r="1" gradientUnits="userSpaceOnUse" gradientTransform="translate(46.3125 256.313) rotate(45) scale(30.2288 16516.7)">
<stop stop-color="#F3CF00"/>
<stop offset="1" stop-color="#FF0420"/>
</radialGradient>
<radialGradient id="paint6_radial_670_14676" cx="0" cy="0" r="1" gradientUnits="userSpaceOnUse" gradientTransform="translate(131.875 309.875) rotate(45) scale(20.1525 11011.2)">
<stop stop-color="#F3CF00"/>
<stop offset="1" stop-color="#FF0420"/>
</radialGradient>
<radialGradient id="paint7_radial_670_14676" cx="0" cy="0" r="1" gradientUnits="userSpaceOnUse" gradientTransform="translate(119.688 321.688) rotate(45) scale(23.5113 12846.4)">
<stop stop-color="#F3CF00"/>
<stop offset="1" stop-color="#FF0420"/>
</radialGradient>
<radialGradient id="paint8_radial_670_14676" cx="0" cy="0" r="1" gradientUnits="userSpaceOnUse" gradientTransform="translate(393 356) rotate(-140.133) scale(237.124 442.183)">
<stop stop-color="#EED9FF"/>
<stop offset="1" stop-color="white"/>
</radialGradient>
<radialGradient id="paint9_radial_670_14676" cx="0" cy="0" r="1" gradientUnits="userSpaceOnUse" gradientTransform="translate(301.563 390.374) rotate(-90) scale(96.973 126.764)">
<stop stop-color="#FFDBDF"/>
<stop offset="1" stop-color="white"/>
</radialGradient>
<radialGradient id="paint10_radial_670_14676" cx="0" cy="0" r="1" gradientUnits="userSpaceOnUse" gradientTransform="translate(301.566 279.263) rotate(90) scale(26.2296 118.348)">
<stop stop-color="#FFDBDF"/>
<stop offset="0.637151" stop-color="#FF0420"/>
<stop offset="1" stop-color="#EB001A"/>
</radialGradient>
<clipPath id="clip0_670_14676">
<rect x="211" y="204" width="182" height="152" rx="28" fill="white"/>
</clipPath>
</defs>
</svg>
